<svg width="16" height="16" viewBox="0 0 16 16" fill="none" xmlns="http://www.w3.org/2000/svg">
<g id="u:angle-right-b" opacity="0.6">
<path id="Vector" d="M10.3602 8.47363L6.58682 12.2403C6.52484 12.3028 6.45111 12.3524 6.36987 12.3862C6.28863 12.4201 6.20149 12.4375 6.11348 12.4375C6.02548 12.4375 5.93834 12.4201 5.8571 12.3862C5.77586 12.3524 5.70213 12.3028 5.64015 12.2403C5.51598 12.1154 5.44629 11.9464 5.44629 11.7703C5.44629 11.5942 5.51598 11.4252 5.64015 11.3003L8.94015 7.96697L5.64015 4.66697C5.51598 4.54206 5.44629 4.37309 5.44629 4.19697C5.44629 4.02084 5.51598 3.85188 5.64015 3.72697C5.70189 3.66398 5.77552 3.61386 5.85677 3.57953C5.93802 3.5452 6.02528 3.52734 6.11348 3.52697C6.20169 3.52734 6.28894 3.5452 6.37019 3.57953C6.45144 3.61386 6.52507 3.66398 6.58682 3.72697L10.3602 7.49363C10.4278 7.55606 10.4818 7.63183 10.5188 7.71616C10.5557 7.8005 10.5748 7.89157 10.5748 7.98363C10.5748 8.0757 10.5557 8.16677 10.5188 8.25111C10.4818 8.33544 10.4278 8.41121 10.3602 8.47363Z" fill="#444444"/>
</g>
</svg>
