<svg width="16" height="17" viewBox="0 0 16 17" fill="none" xmlns="http://www.w3.org/2000/svg">
<g id="u:window-maximize">
<path id="Vector" d="M13.334 14.333H13.834V13.833V7.16634V6.66634H13.334H2.66732H2.16732V7.16634V13.833V14.333H2.66732H13.334ZM14.1185 14.6175L14.4721 14.9711L14.1185 14.6175C14.0872 14.6488 14.0449 14.6663 14.0007 14.6663H2.00065C1.95645 14.6663 1.91406 14.6488 1.8828 14.6175C1.85154 14.5863 1.83398 14.5439 1.83398 14.4997V2.49967C1.83398 2.45547 1.85154 2.41308 1.8828 2.38182C1.91406 2.35057 1.95645 2.33301 2.00065 2.33301H14.0007C14.0449 2.33301 14.0872 2.35057 14.1185 2.38182C14.1498 2.41308 14.1673 2.45547 14.1673 2.49967V14.4997C14.1673 14.5439 14.1498 14.5863 14.1185 14.6175ZM13.334 6.33301H13.834V5.83301V3.16634V2.66634H13.334H2.66732H2.16732V3.16634V5.83301V6.33301H2.66732H13.334Z" stroke="#6C9B31"/>
</g>
</svg>
