<svg width="16" height="17" viewBox="0 0 16 17" fill="none" xmlns="http://www.w3.org/2000/svg">
<g id="u:receipt">
<path id="Vector" d="M5.99992 8.50037H4.66659C4.48978 8.50037 4.32021 8.57061 4.19519 8.69563C4.07016 8.82066 3.99992 8.99023 3.99992 9.16704C3.99992 9.34385 4.07016 9.51342 4.19519 9.63844C4.32021 9.76347 4.48978 9.8337 4.66659 9.8337H5.99992C6.17673 9.8337 6.3463 9.76347 6.47133 9.63844C6.59635 9.51342 6.66659 9.34385 6.66659 9.16704C6.66659 8.99023 6.59635 8.82066 6.47133 8.69563C6.3463 8.57061 6.17673 8.50037 5.99992 8.50037ZM5.33326 7.16704H7.99992C8.17673 7.16704 8.3463 7.0968 8.47133 6.97178C8.59635 6.84675 8.66659 6.67718 8.66659 6.50037C8.66659 6.32356 8.59635 6.15399 8.47133 6.02897C8.3463 5.90394 8.17673 5.8337 7.99992 5.8337H5.33326C5.15645 5.8337 4.98688 5.90394 4.86185 6.02897C4.73683 6.15399 4.66659 6.32356 4.66659 6.50037C4.66659 6.67718 4.73683 6.84675 4.86185 6.97178C4.98688 7.0968 5.15645 7.16704 5.33326 7.16704ZM5.99992 11.167H4.66659C4.48978 11.167 4.32021 11.2373 4.19519 11.3623C4.07016 11.4873 3.99992 11.6569 3.99992 11.8337C3.99992 12.0105 4.07016 12.1801 4.19519 12.3051C4.32021 12.4301 4.48978 12.5004 4.66659 12.5004H5.99992C6.17673 12.5004 6.3463 12.4301 6.47133 12.3051C6.59635 12.1801 6.66659 12.0105 6.66659 11.8337C6.66659 11.6569 6.59635 11.4873 6.47133 11.3623C6.3463 11.2373 6.17673 11.167 5.99992 11.167ZM13.9999 8.50037H11.9999V2.50037C12.0004 2.3829 11.9698 2.26739 11.9113 2.16554C11.8527 2.06368 11.7683 1.97911 11.6666 1.92037C11.5652 1.86186 11.4503 1.83105 11.3333 1.83105C11.2162 1.83105 11.1013 1.86186 10.9999 1.92037L8.99992 3.06704L6.99992 1.92037C6.89858 1.86186 6.78361 1.83105 6.66659 1.83105C6.54957 1.83105 6.4346 1.86186 6.33326 1.92037L4.33326 3.06704L2.33326 1.92037C2.23191 1.86186 2.11695 1.83105 1.99992 1.83105C1.8829 1.83105 1.76794 1.86186 1.66659 1.92037C1.56485 1.97911 1.48044 2.06368 1.42191 2.16554C1.36337 2.26739 1.33279 2.3829 1.33326 2.50037V13.167C1.33326 13.6975 1.54397 14.2062 1.91904 14.5813C2.29412 14.9563 2.80282 15.167 3.33326 15.167H12.6666C13.197 15.167 13.7057 14.9563 14.0808 14.5813C14.4559 14.2062 14.6666 13.6975 14.6666 13.167V9.16704C14.6666 8.99023 14.5964 8.82066 14.4713 8.69563C14.3463 8.57061 14.1767 8.50037 13.9999 8.50037ZM3.33326 13.8337C3.15645 13.8337 2.98688 13.7635 2.86185 13.6384C2.73683 13.5134 2.66659 13.3438 2.66659 13.167V3.6537L3.99992 4.4137C4.10282 4.46745 4.21718 4.49551 4.33326 4.49551C4.44934 4.49551 4.5637 4.46745 4.66659 4.4137L6.66659 3.26704L8.66659 4.4137C8.76948 4.46745 8.88384 4.49551 8.99992 4.49551C9.116 4.49551 9.23036 4.46745 9.33326 4.4137L10.6666 3.6537V13.167C10.6684 13.3945 10.709 13.6199 10.7866 13.8337H3.33326ZM13.3333 13.167C13.3333 13.3438 13.263 13.5134 13.138 13.6384C13.013 13.7635 12.8434 13.8337 12.6666 13.8337C12.4898 13.8337 12.3202 13.7635 12.1952 13.6384C12.0702 13.5134 11.9999 13.3438 11.9999 13.167V9.8337H13.3333V13.167ZM9.03992 11.2804C9.00276 11.2551 8.96241 11.235 8.91992 11.2204C8.88023 11.2001 8.83741 11.1866 8.79326 11.1804C8.68615 11.1589 8.57542 11.1641 8.4708 11.1955C8.36618 11.2269 8.27087 11.2835 8.19326 11.3604C8.07143 11.4881 8.00238 11.6572 7.99992 11.8337C7.99886 11.9204 8.01471 12.0064 8.04659 12.087C8.08283 12.1681 8.13241 12.2424 8.19326 12.307C8.25806 12.3659 8.33247 12.4133 8.41326 12.447C8.49306 12.4823 8.57934 12.5005 8.66659 12.5005C8.75384 12.5005 8.84012 12.4823 8.91992 12.447C9.00071 12.4133 9.07512 12.3659 9.13992 12.307C9.20171 12.2447 9.25059 12.1709 9.28377 12.0896C9.31695 12.0084 9.33376 11.9214 9.33326 11.8337C9.3308 11.6572 9.26175 11.4881 9.13992 11.3604C9.10824 11.3317 9.07485 11.305 9.03992 11.2804ZM9.13326 8.6937C9.05541 8.6179 8.96022 8.56226 8.85596 8.53165C8.7517 8.50104 8.64154 8.49637 8.53507 8.51806C8.4286 8.53975 8.32904 8.58714 8.24507 8.65609C8.16109 8.72505 8.09524 8.81349 8.05326 8.9137C8.01176 9.0147 7.99571 9.12435 8.00652 9.233C8.01732 9.34166 8.05464 9.44599 8.11521 9.53685C8.17578 9.6277 8.25773 9.70228 8.35388 9.75404C8.45002 9.80581 8.5574 9.83316 8.66659 9.8337C8.8434 9.8337 9.01297 9.76347 9.13799 9.63844C9.26302 9.51342 9.33326 9.34385 9.33326 9.16704C9.3322 9.07992 9.31408 8.99385 9.27992 8.9137C9.2478 8.83048 9.19773 8.75536 9.13326 8.6937Z" fill="#6C9B31"/>
</g>
</svg>
