<svg width="16" height="17" viewBox="0 0 16 17" fill="none" xmlns="http://www.w3.org/2000/svg">
<g id="u:map">
<path id="Vector" d="M14.2133 3.86687L10.2133 2.53353H10.1666C10.1356 2.53041 10.1043 2.53041 10.0733 2.53353H9.91992H9.83325H9.78659L5.99992 3.83353L2.21325 2.53353C2.113 2.50047 2.00632 2.4917 1.90201 2.50792C1.7977 2.52415 1.69873 2.56492 1.61325 2.62687C1.52709 2.68821 1.45676 2.76917 1.40808 2.86307C1.35939 2.95697 1.33374 3.0611 1.33325 3.16687V12.5002C1.33289 12.64 1.37647 12.7763 1.45782 12.89C1.53916 13.0036 1.65417 13.0888 1.78659 13.1335L5.78659 14.4669C5.92089 14.5107 6.06562 14.5107 6.19992 14.4669L9.99992 13.2002L13.7866 14.5002C13.8574 14.5098 13.9291 14.5098 13.9999 14.5002C14.1393 14.5022 14.2754 14.4576 14.3866 14.3735C14.4727 14.3122 14.5431 14.2312 14.5918 14.1373C14.6405 14.0434 14.6661 13.9393 14.6666 13.8335V4.5002C14.6669 4.36044 14.6234 4.2241 14.542 4.11045C14.4607 3.9968 14.3457 3.91159 14.2133 3.86687ZM5.33325 12.9069L2.66659 12.0202V4.09353L5.33325 4.9802V12.9069ZM9.33325 12.0202L6.66659 12.9069V4.9802L9.33325 4.09353V12.0202ZM13.3333 12.9069L10.6666 12.0202V4.09353L13.3333 4.9802V12.9069Z" fill="#6C9B31"/>
</g>
</svg>
