<svg width="16" height="17" viewBox="0 0 16 17" fill="none" xmlns="http://www.w3.org/2000/svg">
<g id="u:chat-bubble-user">
<path id="Vector" d="M9.72 8.03301C10.023 7.65431 10.1897 7.18466 10.1933 6.69967C10.1933 6.11797 9.96225 5.56008 9.55092 5.14875C9.13959 4.73742 8.58171 4.50634 8 4.50634C7.41829 4.50634 6.86041 4.73742 6.44908 5.14875C6.03775 5.56008 5.80667 6.11797 5.80667 6.69967C5.81028 7.18466 5.97701 7.65431 6.28 8.03301C5.68575 8.39464 5.21953 8.93312 4.94667 9.57301C4.90848 9.6542 4.88707 9.74226 4.88372 9.83192C4.88037 9.92157 4.89516 10.011 4.92719 10.0948C4.95923 10.1786 5.00784 10.2551 5.07014 10.3197C5.13243 10.3842 5.20712 10.4356 5.28973 10.4706C5.37233 10.5056 5.46116 10.5236 5.55088 10.5234C5.6406 10.5233 5.72937 10.5051 5.81188 10.4698C5.89438 10.4346 5.96892 10.383 6.03103 10.3183C6.09314 10.2535 6.14154 10.1769 6.17333 10.093C6.32656 9.73484 6.58105 9.42921 6.90555 9.21367C7.23005 8.99812 7.61044 8.88204 8 8.87967C8.3907 8.88074 8.77253 8.99622 9.09833 9.21184C9.42414 9.42747 9.67966 9.7338 9.83333 10.093C9.88437 10.2135 9.96974 10.3163 10.0788 10.3886C10.1879 10.461 10.3158 10.4996 10.4467 10.4997C10.5359 10.498 10.624 10.4799 10.7067 10.4463C10.8692 10.3773 10.9978 10.2465 11.064 10.0828C11.1303 9.91903 11.1288 9.73569 11.06 9.57301C10.7854 8.93217 10.3167 8.39357 9.72 8.03301ZM8 7.54634C7.82963 7.54634 7.66309 7.49573 7.52152 7.40093C7.37996 7.30613 7.26974 7.17142 7.20485 7.01389C7.13995 6.85636 7.12332 6.6831 7.15704 6.5161C7.19077 6.34909 7.27334 6.19587 7.39428 6.07587C7.51523 5.95586 7.66909 5.87449 7.83635 5.84206C8.00361 5.80963 8.17673 5.82762 8.33375 5.89373C8.49078 5.95985 8.62462 6.07111 8.71832 6.21341C8.81201 6.35572 8.86132 6.52264 8.86 6.69301C8.85824 6.91994 8.76686 7.13697 8.60577 7.29681C8.44468 7.45666 8.22694 7.54635 8 7.54634ZM12 1.83301H4C3.46957 1.83301 2.96086 2.04372 2.58579 2.41879C2.21071 2.79387 2 3.30257 2 3.83301V11.1663C2 11.6968 2.21071 12.2055 2.58579 12.5806C2.96086 12.9556 3.46957 13.1663 4 13.1663H5.72667L7.52667 14.973C7.58896 15.0348 7.66284 15.0837 7.74406 15.1169C7.82529 15.15 7.91226 15.1668 8 15.1663C8.1589 15.1664 8.31257 15.1096 8.43333 15.0063L10.58 13.1663H12C12.5304 13.1663 13.0391 12.9556 13.4142 12.5806C13.7893 12.2055 14 11.6968 14 11.1663V3.83301C14 3.30257 13.7893 2.79387 13.4142 2.41879C13.0391 2.04372 12.5304 1.83301 12 1.83301ZM12.6667 11.1663C12.6667 11.3432 12.5964 11.5127 12.4714 11.6377C12.3464 11.7628 12.1768 11.833 12 11.833H10.3333C10.1744 11.833 10.0208 11.8897 9.9 11.993L8.03333 13.593L6.47333 12.0263C6.41104 11.9646 6.33716 11.9157 6.25594 11.8825C6.17471 11.8493 6.08774 11.8325 6 11.833H4C3.82319 11.833 3.65362 11.7628 3.5286 11.6377C3.40357 11.5127 3.33333 11.3432 3.33333 11.1663V3.83301C3.33333 3.6562 3.40357 3.48663 3.5286 3.3616C3.65362 3.23658 3.82319 3.16634 4 3.16634H12C12.1768 3.16634 12.3464 3.23658 12.4714 3.3616C12.5964 3.48663 12.6667 3.6562 12.6667 3.83301V11.1663Z" fill="#6C9B31"/>
</g>
</svg>
