<svg width="16" height="17" viewBox="0 0 16 17" fill="none" xmlns="http://www.w3.org/2000/svg">
<g id="u:file-shield-alt">
<path id="Vector" d="M7.00008 13.833H3.66675C3.48994 13.833 3.32037 13.7628 3.19534 13.6377C3.07032 13.5127 3.00008 13.3432 3.00008 13.1663V3.83301C3.00008 3.6562 3.07032 3.48663 3.19534 3.3616C3.32037 3.23658 3.48994 3.16634 3.66675 3.16634H7.00008V5.16634C7.00008 5.69677 7.21079 6.20548 7.58587 6.58055C7.96094 6.95563 8.46965 7.16634 9.00008 7.16634H11.0001C11.0001 7.34315 11.0703 7.51272 11.1953 7.63775C11.3204 7.76277 11.4899 7.83301 11.6667 7.83301C11.8436 7.83301 12.0131 7.76277 12.1382 7.63775C12.2632 7.51272 12.3334 7.34315 12.3334 7.16634V6.49967C12.3334 6.49967 12.3334 6.49967 12.3334 6.45967C12.3265 6.39843 12.3131 6.3381 12.2934 6.27967V6.21967C12.2614 6.15113 12.2186 6.08812 12.1667 6.03301L8.16675 2.03301C8.11164 1.98115 8.04863 1.9384 7.98008 1.90634C7.96018 1.90351 7.93998 1.90351 7.92008 1.90634L7.70675 1.83301H3.66675C3.13631 1.83301 2.62761 2.04372 2.25253 2.41879C1.87746 2.79387 1.66675 3.30257 1.66675 3.83301V13.1663C1.66675 13.6968 1.87746 14.2055 2.25253 14.5806C2.62761 14.9556 3.13631 15.1663 3.66675 15.1663H7.00008C7.17689 15.1663 7.34646 15.0961 7.47149 14.9711C7.59651 14.8461 7.66675 14.6765 7.66675 14.4997C7.66675 14.3229 7.59651 14.1533 7.47149 14.0283C7.34646 13.9032 7.17689 13.833 7.00008 13.833ZM8.33341 4.10634L10.0601 5.83301H9.00008C8.82327 5.83301 8.6537 5.76277 8.52868 5.63775C8.40365 5.51272 8.33341 5.34315 8.33341 5.16634V4.10634ZM5.00008 5.83301C4.82327 5.83301 4.6537 5.90325 4.52868 6.02827C4.40365 6.15329 4.33341 6.32286 4.33341 6.49967C4.33341 6.67649 4.40365 6.84605 4.52868 6.97108C4.6537 7.0961 4.82327 7.16634 5.00008 7.16634H5.66675C5.84356 7.16634 6.01313 7.0961 6.13815 6.97108C6.26318 6.84605 6.33341 6.67649 6.33341 6.49967C6.33341 6.32286 6.26318 6.15329 6.13815 6.02827C6.01313 5.90325 5.84356 5.83301 5.66675 5.83301H5.00008ZM14.0867 9.73967C14.0093 9.67702 13.9188 9.63252 13.8219 9.60945C13.725 9.58638 13.6241 9.58531 13.5267 9.60634C13.274 9.65961 13.0128 9.65924 12.7602 9.60527C12.5075 9.5513 12.269 9.44492 12.0601 9.29301C11.9459 9.20958 11.8082 9.16461 11.6667 9.16461C11.5253 9.16461 11.3876 9.20958 11.2734 9.29301C11.0643 9.44455 10.8258 9.5507 10.5732 9.60466C10.3206 9.65862 10.0596 9.65919 9.80675 9.60634C9.70829 9.58517 9.60632 9.58658 9.50849 9.61046C9.41066 9.63434 9.31951 9.68007 9.24188 9.74422C9.16426 9.80838 9.10218 9.88928 9.0603 9.98087C9.01842 10.0724 8.99783 10.1723 9.00008 10.273V11.833C8.99904 12.3102 9.10939 12.7811 9.32234 13.2081C9.5353 13.6352 9.84498 14.0067 10.2267 14.293L11.2667 15.033C11.3821 15.1196 11.5225 15.1663 11.6667 15.1663C11.811 15.1663 11.9514 15.1196 12.0667 15.033L13.1067 14.2597C13.484 13.9767 13.791 13.6106 14.0037 13.1897C14.2165 12.7689 14.3293 12.3046 14.3334 11.833V10.253C14.3328 10.1545 14.3103 10.0574 14.2677 9.96868C14.225 9.87992 14.1632 9.80171 14.0867 9.73967ZM13.0001 11.833C13.0032 12.1008 12.9447 12.3658 12.8291 12.6074C12.7135 12.849 12.5439 13.0608 12.3334 13.2263L11.6667 13.7063L11.0001 13.2263C10.7896 13.0608 10.62 12.849 10.5044 12.6074C10.3888 12.3658 10.3303 12.1008 10.3334 11.833V10.9797C10.7997 10.9587 11.2553 10.8334 11.6667 10.613C12.0782 10.8334 12.5338 10.9587 13.0001 10.9797V11.833ZM7.00008 11.1997H5.00008C4.82327 11.1997 4.6537 11.2699 4.52868 11.3949C4.40365 11.52 4.33341 11.6895 4.33341 11.8663C4.33341 12.0432 4.40365 12.2127 4.52868 12.3377C4.6537 12.4628 4.82327 12.533 5.00008 12.533H7.00008C7.17689 12.533 7.34646 12.4628 7.47149 12.3377C7.59651 12.2127 7.66675 12.0432 7.66675 11.8663C7.66675 11.6895 7.59651 11.52 7.47149 11.3949C7.34646 11.2699 7.17689 11.1997 7.00008 11.1997ZM7.66675 8.53301H5.00008C4.82327 8.53301 4.6537 8.60325 4.52868 8.72827C4.40365 8.85329 4.33341 9.02286 4.33341 9.19967C4.33341 9.37649 4.40365 9.54605 4.52868 9.67108C4.6537 9.7961 4.82327 9.86634 5.00008 9.86634H7.66675C7.84356 9.86634 8.01313 9.7961 8.13815 9.67108C8.26318 9.54605 8.33341 9.37649 8.33341 9.19967C8.33341 9.02286 8.26318 8.85329 8.13815 8.72827C8.01313 8.60325 7.84356 8.53301 7.66675 8.53301Z" fill="#6C9B31"/>
</g>
</svg>
