<svg width="16" height="17" viewBox="0 0 16 17" fill="none" xmlns="http://www.w3.org/2000/svg">
<g id="u:user-square">
<path id="Vector" d="M9.87325 8.68634C10.2952 8.23317 10.533 7.63886 10.5399 7.01967C10.5399 6.35133 10.2744 5.71036 9.80183 5.23777C9.32924 4.76517 8.68826 4.49967 8.01992 4.49967C7.35157 4.49967 6.7106 4.76517 6.23801 5.23777C5.76542 5.71036 5.49992 6.35133 5.49992 7.01967C5.50688 7.63886 5.7446 8.23317 6.16659 8.68634C5.57902 8.97892 5.0734 9.41297 4.6952 9.94943C4.31699 10.4859 4.07807 11.108 3.99992 11.7597C3.98047 11.9365 4.03205 12.1138 4.14333 12.2526C4.2546 12.3913 4.41644 12.4802 4.59325 12.4997C4.77006 12.5191 4.94736 12.4675 5.08614 12.3563C5.22491 12.245 5.3138 12.0832 5.33325 11.9063C5.41281 11.2604 5.72582 10.6659 6.21331 10.2348C6.7008 9.80364 7.32913 9.56566 7.97992 9.56566C8.63071 9.56566 9.25903 9.80364 9.74653 10.2348C10.234 10.6659 10.547 11.2604 10.6266 11.9063C10.6451 12.0773 10.729 12.2345 10.8607 12.345C10.9924 12.4556 11.1617 12.511 11.3333 12.4997H11.4066C11.5813 12.4796 11.7411 12.3912 11.851 12.2538C11.9609 12.1165 12.012 11.9412 11.9933 11.7663C11.9209 11.1181 11.6895 10.4977 11.3197 9.96037C10.9498 9.42305 10.453 8.98541 9.87325 8.68634ZM7.99992 8.20634C7.76522 8.20634 7.53579 8.13674 7.34064 8.00635C7.1455 7.87596 6.9934 7.69063 6.90358 7.47379C6.81377 7.25696 6.79027 7.01836 6.83605 6.78817C6.88184 6.55798 6.99486 6.34653 7.16082 6.18057C7.32678 6.01462 7.53822 5.9016 7.76841 5.85581C7.9986 5.81002 8.2372 5.83352 8.45404 5.92334C8.67087 6.01315 8.8562 6.16525 8.9866 6.3604C9.11699 6.55554 9.18659 6.78497 9.18659 7.01967C9.18659 7.3344 9.06156 7.63623 8.83902 7.85878C8.61648 8.08132 8.31464 8.20634 7.99992 8.20634ZM12.6666 1.83301H3.33325C2.80282 1.83301 2.29411 2.04372 1.91904 2.41879C1.54397 2.79387 1.33325 3.30257 1.33325 3.83301V13.1663C1.33325 13.6968 1.54397 14.2055 1.91904 14.5806C2.29411 14.9556 2.80282 15.1663 3.33325 15.1663H12.6666C13.197 15.1663 13.7057 14.9556 14.0808 14.5806C14.4559 14.2055 14.6666 13.6968 14.6666 13.1663V3.83301C14.6666 3.30257 14.4559 2.79387 14.0808 2.41879C13.7057 2.04372 13.197 1.83301 12.6666 1.83301ZM13.3333 13.1663C13.3333 13.3432 13.263 13.5127 13.138 13.6377C13.013 13.7628 12.8434 13.833 12.6666 13.833H3.33325C3.15644 13.833 2.98687 13.7628 2.86185 13.6377C2.73682 13.5127 2.66659 13.3432 2.66659 13.1663V3.83301C2.66659 3.6562 2.73682 3.48663 2.86185 3.3616C2.98687 3.23658 3.15644 3.16634 3.33325 3.16634H12.6666C12.8434 3.16634 13.013 3.23658 13.138 3.3616C13.263 3.48663 13.3333 3.6562 13.3333 3.83301V13.1663Z" fill="#6C9B31"/>
</g>
</svg>
