<svg width="16" height="17" viewBox="0 0 16 17" fill="none" xmlns="http://www.w3.org/2000/svg">
<g id="u:plane">
<path id="Vector" d="M14.5 8.49982C14.4997 8.37671 14.4652 8.2561 14.4005 8.15137C14.3358 8.04665 14.2433 7.96188 14.1334 7.90648L10.0534 5.86648V3.19982C10.0534 2.65524 9.83702 2.13297 9.45195 1.74789C9.06687 1.36282 8.5446 1.14648 8.00002 1.14648C7.45545 1.14648 6.93317 1.36282 6.5481 1.74789C6.16302 2.13297 5.94669 2.65524 5.94669 3.19982V5.86648L1.86669 7.90648C1.75675 7.96188 1.66429 8.04665 1.59957 8.15137C1.53485 8.2561 1.5004 8.37671 1.50002 8.49982V10.7198C1.49912 10.8284 1.52476 10.9356 1.57472 11.032C1.62468 11.1285 1.69745 11.2112 1.78669 11.2732C1.87542 11.3339 1.97755 11.3724 2.08435 11.3851C2.19115 11.3979 2.29946 11.3846 2.40002 11.3465L5.94669 10.0132V12.4998L4.73336 12.8998C4.60094 12.9445 4.48593 13.0297 4.40458 13.1434C4.32324 13.257 4.27966 13.3934 4.28002 13.5332V15.1665C4.28039 15.2547 4.29826 15.3419 4.33259 15.4232C4.36692 15.5044 4.41703 15.5781 4.48002 15.6398C4.6042 15.763 4.7718 15.8324 4.94669 15.8332H11.06C11.2368 15.8332 11.4064 15.7629 11.5314 15.6379C11.6565 15.5129 11.7267 15.3433 11.7267 15.1665V13.4998C11.7271 13.3601 11.6835 13.2237 11.6021 13.1101C11.5208 12.9964 11.4058 12.9112 11.2734 12.8665L10.0534 12.4998V10.0198L13.6 11.3532C13.7006 11.3913 13.8089 11.4046 13.9157 11.3918C14.0225 11.379 14.1246 11.3406 14.2134 11.2798C14.3026 11.2179 14.3754 11.1351 14.4253 11.0387C14.4753 10.9423 14.5009 10.8351 14.5 10.7265V8.49982ZM9.62669 8.43315C9.52521 8.39384 9.41565 8.37997 9.30757 8.39276C9.1995 8.40554 9.0962 8.44458 9.00669 8.50648C8.91838 8.56775 8.84619 8.64945 8.79628 8.74464C8.74636 8.83983 8.7202 8.94567 8.72002 9.05315V12.9465C8.72013 13.0871 8.76467 13.224 8.84729 13.3378C8.9299 13.4515 9.04636 13.5362 9.18002 13.5798L10.3867 13.9798V14.4998H5.60669V13.9798L6.81336 13.5798C6.94702 13.5362 7.06348 13.4515 7.14609 13.3378C7.22871 13.224 7.27325 13.0871 7.27336 12.9465V9.05315C7.27318 8.94567 7.24702 8.83983 7.1971 8.74464C7.14719 8.64945 7.075 8.56775 6.98669 8.50648C6.89718 8.44458 6.79388 8.40554 6.6858 8.39276C6.57773 8.37997 6.46817 8.39384 6.36669 8.43315L2.82669 9.76648V8.91315L6.90002 6.87315C7.01121 6.81868 7.10503 6.73431 7.17097 6.62952C7.23691 6.52472 7.27236 6.40363 7.27336 6.27982V3.21982C7.27336 3.02886 7.34921 2.84573 7.48424 2.7107C7.61927 2.57567 7.8024 2.49982 7.99336 2.49982C8.18431 2.49982 8.36745 2.57567 8.50247 2.7107C8.6375 2.84573 8.71336 3.02886 8.71336 3.21982V6.27982C8.71435 6.40363 8.7498 6.52472 8.81574 6.62952C8.88168 6.73431 8.9755 6.81868 9.08669 6.87315L13.16 8.91315V9.75982L9.62669 8.43315Z" fill="#6C9B31"/>
</g>
</svg>
