<svg width="16" height="17" viewBox="0 0 16 17" fill="none" xmlns="http://www.w3.org/2000/svg">
<g id="u:chart-bar">
<path id="Vector" d="M13.9999 13.833H13.3333V3.83301C13.3333 3.6562 13.263 3.48663 13.138 3.3616C13.013 3.23658 12.8434 3.16634 12.6666 3.16634C12.4898 3.16634 12.3202 3.23658 12.1952 3.3616C12.0702 3.48663 11.9999 3.6562 11.9999 3.83301V13.833H10.6666V9.16634C10.6666 8.98953 10.5963 8.81996 10.4713 8.69494C10.3463 8.56991 10.1767 8.49967 9.99992 8.49967C9.82311 8.49967 9.65354 8.56991 9.52851 8.69494C9.40349 8.81996 9.33325 8.98953 9.33325 9.16634V13.833H7.99992V6.49967C7.99992 6.32286 7.92968 6.15329 7.80466 6.02827C7.67963 5.90325 7.51006 5.83301 7.33325 5.83301C7.15644 5.83301 6.98687 5.90325 6.86185 6.02827C6.73682 6.15329 6.66659 6.32286 6.66659 6.49967V13.833H5.33325V11.833C5.33325 11.6562 5.26301 11.4866 5.13799 11.3616C5.01297 11.2366 4.8434 11.1663 4.66659 11.1663C4.48977 11.1663 4.32021 11.2366 4.19518 11.3616C4.07016 11.4866 3.99992 11.6562 3.99992 11.833V13.833H2.66659V2.49967C2.66659 2.32286 2.59635 2.15329 2.47132 2.02827C2.3463 1.90325 2.17673 1.83301 1.99992 1.83301C1.82311 1.83301 1.65354 1.90325 1.52851 2.02827C1.40349 2.15329 1.33325 2.32286 1.33325 2.49967V14.4997C1.33325 14.6765 1.40349 14.8461 1.52851 14.9711C1.65354 15.0961 1.82311 15.1663 1.99992 15.1663H13.9999C14.1767 15.1663 14.3463 15.0961 14.4713 14.9711C14.5963 14.8461 14.6666 14.6765 14.6666 14.4997C14.6666 14.3229 14.5963 14.1533 14.4713 14.0283C14.3463 13.9032 14.1767 13.833 13.9999 13.833Z" fill="#6C9B31"/>
</g>
</svg>
