<svg width="16" height="16" viewBox="0 0 16 16" fill="none" xmlns="http://www.w3.org/2000/svg">
<g id="u:link-broken">
<path id="Vector" d="M3.17261 7.05962C3.34942 7.0826 3.52812 7.03441 3.6694 6.92564C3.81068 6.81687 3.90296 6.65643 3.92595 6.47962C3.94893 6.30281 3.90074 6.12411 3.79197 5.98283C3.68319 5.84155 3.52276 5.74927 3.34595 5.72628L2.17261 5.43295C2.08707 5.40673 1.99712 5.39799 1.90813 5.40726C1.81914 5.41653 1.73293 5.44362 1.65463 5.48691C1.57633 5.53021 1.50755 5.58882 1.45238 5.65925C1.39721 5.72969 1.35678 5.81051 1.3335 5.8969C1.31023 5.98329 1.30458 6.07349 1.31689 6.16211C1.32921 6.25073 1.35924 6.33596 1.40519 6.41273C1.45114 6.4895 1.51207 6.55624 1.58436 6.60896C1.65665 6.66168 1.73881 6.69932 1.82595 6.71962L2.99928 7.03295C3.05513 7.05159 3.11374 7.06061 3.17261 7.05962ZM5.74595 3.33295C5.78501 3.47839 5.87217 3.60632 5.99323 3.6959C6.11428 3.78548 6.2621 3.83144 6.41261 3.82628C6.47002 3.8355 6.52854 3.8355 6.58595 3.82628C6.75515 3.77947 6.89907 3.66781 6.98644 3.51553C7.07381 3.36325 7.09759 3.18265 7.05261 3.01295L6.73928 1.83962C6.71898 1.75248 6.68134 1.67032 6.62862 1.59803C6.5759 1.52575 6.50916 1.46481 6.43239 1.41886C6.35562 1.37291 6.27039 1.34288 6.18177 1.33056C6.09315 1.31825 6.00296 1.3239 5.91657 1.34717C5.83017 1.37045 5.74935 1.41088 5.67892 1.46605C5.60848 1.52122 5.54987 1.59 5.50658 1.6683C5.46328 1.7466 5.43619 1.83282 5.42692 1.92181C5.41765 2.0108 5.42639 2.10074 5.45261 2.18628L5.74595 3.33295ZM8.96595 9.99962C8.90367 9.93406 8.8287 9.88186 8.74561 9.84618C8.66252 9.81051 8.57304 9.79212 8.48261 9.79212C8.39219 9.79212 8.30271 9.81051 8.21962 9.84618C8.13653 9.88186 8.06156 9.93406 7.99928 9.99962L5.66595 12.373C5.3916 12.6362 5.02613 12.7831 4.64595 12.7831C4.26576 12.7831 3.90029 12.6362 3.62595 12.373C3.4909 12.2396 3.38367 12.0808 3.31048 11.9057C3.2373 11.7306 3.19961 11.5427 3.19961 11.353C3.19961 11.1632 3.2373 10.9753 3.31048 10.8002C3.38367 10.6251 3.4909 10.4663 3.62595 10.333L5.99928 7.99962C6.06907 7.93985 6.12575 7.86631 6.16576 7.7836C6.20578 7.70089 6.22827 7.6108 6.23181 7.51899C6.23536 7.42717 6.21989 7.33562 6.18637 7.25007C6.15285 7.16452 6.10202 7.08682 6.03705 7.02185C5.97208 6.95688 5.89438 6.90604 5.80883 6.87253C5.72328 6.83901 5.63172 6.82354 5.53991 6.82709C5.4481 6.83063 5.35801 6.85312 5.2753 6.89313C5.19259 6.93315 5.11904 6.98983 5.05928 7.05962L2.66595 9.38628C2.4068 9.64543 2.20124 9.95307 2.06099 10.2917C1.92075 10.6302 1.84856 10.9931 1.84856 11.3596C1.84856 11.7261 1.92075 12.089 2.06099 12.4276C2.20124 12.7662 2.4068 13.0738 2.66595 13.333C2.92509 13.5921 3.23273 13.7977 3.57132 13.9379C3.9099 14.0781 4.2728 14.1503 4.63928 14.1503C5.00576 14.1503 5.36865 14.0781 5.70724 13.9379C6.04582 13.7977 6.35347 13.5921 6.61261 13.333L8.96595 10.9796C9.03362 10.9172 9.08762 10.8414 9.12456 10.7571C9.1615 10.6728 9.18057 10.5817 9.18057 10.4896C9.18057 10.3975 9.1615 10.3065 9.12456 10.2221C9.08762 10.1378 9.03362 10.062 8.96595 9.99962ZM3.45261 4.39295C3.57679 4.51611 3.74439 4.58555 3.91928 4.58628C4.00702 4.58679 4.09399 4.56997 4.17522 4.5368C4.25644 4.50362 4.33032 4.45474 4.39261 4.39295C4.51678 4.26804 4.58647 4.09907 4.58647 3.92295C4.58647 3.74683 4.51678 3.57786 4.39261 3.45295L3.53261 2.59295C3.40508 2.48373 3.24103 2.42666 3.07324 2.43314C2.90546 2.43962 2.7463 2.50918 2.62757 2.62791C2.50884 2.74664 2.43929 2.9058 2.4328 3.07358C2.42632 3.24137 2.48339 3.40542 2.59261 3.53295L3.45261 4.39295ZM14.1726 9.27962L12.9993 8.96628C12.9123 8.93623 12.8201 8.9245 12.7284 8.93182C12.6367 8.93915 12.5475 8.96538 12.4664 9.00886C12.3853 9.05234 12.3141 9.11213 12.2573 9.18447C12.2005 9.2568 12.1592 9.34012 12.1361 9.42918C12.1131 9.51824 12.1087 9.61111 12.1232 9.70195C12.1378 9.79278 12.171 9.87962 12.2208 9.957C12.2705 10.0344 12.3358 10.1006 12.4124 10.1515C12.489 10.2025 12.5753 10.237 12.6659 10.253L13.8393 10.5663H14.0126C14.1894 10.5893 14.3681 10.5411 14.5094 10.4323C14.6507 10.3235 14.743 10.1631 14.7659 9.98628C14.7889 9.80947 14.7407 9.63077 14.632 9.4895C14.5232 9.34822 14.3628 9.25594 14.1859 9.23295L14.1726 9.27962ZM10.2526 12.6663C10.2295 12.5818 10.1899 12.5026 10.1361 12.4334C10.0824 12.3642 10.0155 12.3063 9.93936 12.2629C9.8632 12.2196 9.77924 12.1917 9.69229 12.1808C9.60534 12.17 9.5171 12.1764 9.43261 12.1996C9.2634 12.2464 9.11949 12.3581 9.03212 12.5104C8.94474 12.6626 8.92097 12.8432 8.96595 13.013L9.27928 14.1863C9.31835 14.3317 9.40551 14.4597 9.52656 14.5492C9.64762 14.6388 9.79544 14.6848 9.94595 14.6796C10.0035 14.6862 10.0617 14.6862 10.1193 14.6796C10.2044 14.6572 10.2842 14.6181 10.3542 14.5647C10.4241 14.5112 10.4828 14.4445 10.5268 14.3682C10.5708 14.292 10.5993 14.2078 10.6106 14.1205C10.6219 14.0332 10.6158 13.9445 10.5926 13.8596L10.2526 12.6663ZM12.5459 11.6196C12.4184 11.5104 12.2544 11.4533 12.0866 11.4598C11.9188 11.4663 11.7596 11.5358 11.6409 11.6546C11.5222 11.7733 11.4526 11.9325 11.4461 12.1002C11.4397 12.268 11.4967 12.4321 11.6059 12.5596L12.4659 13.4196C12.5909 13.5438 12.7598 13.6135 12.9359 13.6135C13.1121 13.6135 13.281 13.5438 13.4059 13.4196C13.5301 13.2947 13.5998 13.1257 13.5998 12.9496C13.5998 12.7735 13.5301 12.6045 13.4059 12.4796L12.5459 11.6196ZM14.1326 4.66628C14.143 4.11191 13.9869 3.56716 13.6846 3.10235C13.3823 2.63755 12.9476 2.27403 12.4366 2.05874C11.9256 1.84344 11.3619 1.78625 10.8181 1.89455C10.2743 2.00285 9.77545 2.27166 9.38595 2.66628L7.03261 5.03962C6.96958 5.10309 6.91966 5.17836 6.88572 5.26112C6.85177 5.34388 6.83446 5.43252 6.83477 5.52198C6.83508 5.61143 6.853 5.69994 6.88752 5.78247C6.92204 5.865 6.97247 5.93992 7.03595 6.00295C7.09942 6.06599 7.17468 6.1159 7.25745 6.14985C7.34021 6.18379 7.42885 6.20111 7.5183 6.2008C7.60776 6.20049 7.69627 6.18256 7.7788 6.14804C7.86133 6.11353 7.93624 6.06309 7.99928 5.99962L10.3326 3.62628C10.607 3.36308 10.9724 3.21611 11.3526 3.21611C11.7328 3.21611 12.0983 3.36308 12.3726 3.62628C12.5077 3.75961 12.6149 3.91843 12.6881 4.09353C12.7613 4.26862 12.7989 4.45651 12.7989 4.64628C12.7989 4.83606 12.7613 5.02395 12.6881 5.19904C12.6149 5.37414 12.5077 5.53296 12.3726 5.66628L9.99928 7.99962C9.87511 8.12453 9.80542 8.29349 9.80542 8.46962C9.80542 8.64574 9.87511 8.81471 9.99928 8.93962C10.1242 9.06378 10.2932 9.13348 10.4693 9.13348C10.6454 9.13348 10.8144 9.06378 10.9393 8.93962L13.3326 6.61295C13.8429 6.09318 14.1299 5.39466 14.1326 4.66628Z" fill="#6C9B31"/>
</g>
</svg>
