<svg width="16" height="17" viewBox="0 0 16 17" fill="none" xmlns="http://www.w3.org/2000/svg">
<g id="u:file-landscape-alt">
<path id="Vector" d="M14.6673 7.79366C14.6604 7.73241 14.647 7.67208 14.6273 7.61366V7.55366C14.5953 7.48511 14.5525 7.4221 14.5007 7.36699L10.5007 3.36699C10.4455 3.31514 10.3825 3.27238 10.314 3.24033H10.2473C10.1825 3.20566 10.1128 3.18094 10.0407 3.16699H3.33398C2.80355 3.16699 2.29484 3.37771 1.91977 3.75278C1.5447 4.12785 1.33398 4.63656 1.33398 5.16699V11.8337C1.33398 12.3641 1.5447 12.8728 1.91977 13.2479C2.29484 13.6229 2.80355 13.8337 3.33398 13.8337H12.6673C13.1978 13.8337 13.7065 13.6229 14.0815 13.2479C14.4566 12.8728 14.6673 12.3641 14.6673 11.8337V7.83366C14.6673 7.83366 14.6673 7.83366 14.6673 7.79366ZM10.6673 5.44033L12.394 7.16699H11.334C11.1572 7.16699 10.9876 7.09675 10.8626 6.97173C10.7376 6.84671 10.6673 6.67714 10.6673 6.50033V5.44033ZM13.334 11.8337C13.334 12.0105 13.2637 12.18 13.1387 12.3051C13.0137 12.4301 12.8441 12.5003 12.6673 12.5003H3.33398C3.15717 12.5003 2.9876 12.4301 2.86258 12.3051C2.73756 12.18 2.66732 12.0105 2.66732 11.8337V5.16699C2.66732 4.99018 2.73756 4.82061 2.86258 4.69559C2.9876 4.57056 3.15717 4.50033 3.33398 4.50033H9.33398V6.50033C9.33398 7.03076 9.5447 7.53947 9.91977 7.91454C10.2948 8.28961 10.8036 8.50033 11.334 8.50033H13.334V11.8337ZM4.66732 8.50033H7.33398C7.5108 8.50033 7.68036 8.43009 7.80539 8.30506C7.93041 8.18004 8.00065 8.01047 8.00065 7.83366C8.00065 7.65685 7.93041 7.48728 7.80539 7.36225C7.68036 7.23723 7.5108 7.16699 7.33398 7.16699H4.66732C4.49051 7.16699 4.32094 7.23723 4.19591 7.36225C4.07089 7.48728 4.00065 7.65685 4.00065 7.83366C4.00065 8.01047 4.07089 8.18004 4.19591 8.30506C4.32094 8.43009 4.49051 8.50033 4.66732 8.50033ZM4.66732 9.83366C4.49051 9.83366 4.32094 9.9039 4.19591 10.0289C4.07089 10.1539 4.00065 10.3235 4.00065 10.5003C4.00065 10.6771 4.07089 10.8467 4.19591 10.9717C4.32094 11.0968 4.49051 11.167 4.66732 11.167H11.334C11.5108 11.167 11.6804 11.0968 11.8054 10.9717C11.9304 10.8467 12.0007 10.6771 12.0007 10.5003C12.0007 10.3235 11.9304 10.1539 11.8054 10.0289C11.6804 9.9039 11.5108 9.83366 11.334 9.83366H4.66732Z" fill="#6C9B31"/>
</g>
</svg>
