<svg width="16" height="17" viewBox="0 0 16 17" fill="none" xmlns="http://www.w3.org/2000/svg">
<g id="u:images">
<path id="Vector" d="M11.9999 10.4997V3.83301C11.9999 3.30257 11.7892 2.79387 11.4141 2.41879C11.0391 2.04372 10.5304 1.83301 9.99992 1.83301H3.33325C2.80282 1.83301 2.29411 2.04372 1.91904 2.41879C1.54397 2.79387 1.33325 3.30257 1.33325 3.83301V10.4997C1.33325 11.0301 1.54397 11.5388 1.91904 11.9139C2.29411 12.289 2.80282 12.4997 3.33325 12.4997H9.99992C10.5304 12.4997 11.0391 12.289 11.4141 11.9139C11.7892 11.5388 11.9999 11.0301 11.9999 10.4997ZM2.66659 3.83301C2.66659 3.6562 2.73682 3.48663 2.86185 3.3616C2.98687 3.23658 3.15644 3.16634 3.33325 3.16634H9.99992C10.1767 3.16634 10.3463 3.23658 10.4713 3.3616C10.5963 3.48663 10.6666 3.6562 10.6666 3.83301V6.73967L9.94659 6.01301C9.62658 5.69293 9.19253 5.51308 8.73992 5.51301C8.2876 5.51453 7.85408 5.69416 7.53325 6.01301L6.92659 6.61967L6.38659 6.07967C6.02121 5.72017 5.52917 5.51868 5.01659 5.51868C4.504 5.51868 4.01196 5.72017 3.64659 6.07967L2.66659 7.06634V3.83301ZM2.74659 10.7997C2.69518 10.708 2.66767 10.6048 2.66659 10.4997V8.94634L4.58659 7.02634C4.64296 6.9697 4.70996 6.92475 4.78376 6.89409C4.85755 6.86342 4.93667 6.84763 5.01659 6.84763C5.0965 6.84763 5.17562 6.86342 5.24941 6.89409C5.32321 6.92475 5.39021 6.9697 5.44659 7.02634L5.99992 7.56634L2.74659 10.7997ZM8.47992 6.95967C8.51282 6.92352 8.55299 6.89473 8.5978 6.8752C8.64261 6.85567 8.69104 6.84583 8.73992 6.84634C8.7888 6.84583 8.83723 6.85567 8.88204 6.8752C8.92685 6.89473 8.96702 6.92352 8.99992 6.95967L10.6666 8.61967V10.4997C10.6666 10.6765 10.5963 10.8461 10.4713 10.9711C10.3463 11.0961 10.1767 11.1663 9.99992 11.1663H4.26659L8.47992 6.95967ZM13.9999 4.49967C13.8231 4.49967 13.6535 4.56991 13.5285 4.69494C13.4035 4.81996 13.3333 4.98953 13.3333 5.16634V11.833C13.3333 12.3634 13.1225 12.8721 12.7475 13.2472C12.3724 13.6223 11.8637 13.833 11.3333 13.833H4.66659C4.48977 13.833 4.32021 13.9032 4.19518 14.0283C4.07016 14.1533 3.99992 14.3229 3.99992 14.4997C3.99992 14.6765 4.07016 14.8461 4.19518 14.9711C4.32021 15.0961 4.48977 15.1663 4.66659 15.1663H11.3333C12.2173 15.1663 13.0652 14.8152 13.6903 14.19C14.3154 13.5649 14.6666 12.7171 14.6666 11.833V5.16634C14.6666 4.98953 14.5963 4.81996 14.4713 4.69494C14.3463 4.56991 14.1767 4.49967 13.9999 4.49967Z" fill="#6C9B31"/>
</g>
</svg>
