<svg width="16" height="17" viewBox="0 0 16 17" fill="none" xmlns="http://www.w3.org/2000/svg">
<g id="u:headphones-alt">
<path id="Vector" d="M13.3333 9.28667V7.83333C13.3333 6.41885 12.7713 5.06229 11.7712 4.0621C10.771 3.0619 9.41441 2.5 7.99992 2.5C6.58543 2.5 5.22888 3.0619 4.22868 4.0621C3.22849 5.06229 2.66659 6.41885 2.66659 7.83333V9.28667C2.27755 9.42421 1.94058 9.67871 1.70188 10.0153C1.46317 10.3519 1.33441 10.754 1.33325 11.1667V12.5C1.33325 13.0304 1.54397 13.5391 1.91904 13.9142C2.29411 14.2893 2.80282 14.5 3.33325 14.5H5.33325C5.51006 14.5 5.67963 14.4298 5.80466 14.3047C5.92968 14.1797 5.99992 14.0101 5.99992 13.8333V9.83333C5.99992 9.65652 5.92968 9.48695 5.80466 9.36193C5.67963 9.23691 5.51006 9.16667 5.33325 9.16667H3.99992V7.83333C3.99992 6.77247 4.42135 5.75505 5.17149 5.00491C5.92164 4.25476 6.93905 3.83333 7.99992 3.83333C9.06078 3.83333 10.0782 4.25476 10.8283 5.00491C11.5785 5.75505 11.9999 6.77247 11.9999 7.83333V9.16667H10.6666C10.4898 9.16667 10.3202 9.23691 10.1952 9.36193C10.0702 9.48695 9.99992 9.65652 9.99992 9.83333V13.8333C9.99992 14.0101 10.0702 14.1797 10.1952 14.3047C10.3202 14.4298 10.4898 14.5 10.6666 14.5H12.6666C13.197 14.5 13.7057 14.2893 14.0808 13.9142C14.4559 13.5391 14.6666 13.0304 14.6666 12.5V11.1667C14.6654 10.754 14.5367 10.3519 14.298 10.0153C14.0593 9.67871 13.7223 9.42421 13.3333 9.28667ZM4.66659 10.5V13.1667H3.33325C3.15644 13.1667 2.98687 13.0964 2.86185 12.9714C2.73682 12.8464 2.66659 12.6768 2.66659 12.5V11.1667C2.66659 10.9899 2.73682 10.8203 2.86185 10.6953C2.98687 10.5702 3.15644 10.5 3.33325 10.5H4.66659ZM13.3333 12.5C13.3333 12.6768 13.263 12.8464 13.138 12.9714C13.013 13.0964 12.8434 13.1667 12.6666 13.1667H11.3333V10.5H12.6666C12.8434 10.5 13.013 10.5702 13.138 10.6953C13.263 10.8203 13.3333 10.9899 13.3333 11.1667V12.5Z" fill="#6C9B31"/>
</g>
</svg>
