<svg width="16" height="16" viewBox="0 0 16 16" fill="none" xmlns="http://www.w3.org/2000/svg">
<g id="u:image">
<path id="Vector" d="M12.6673 2.66699H3.33398C2.80355 2.66699 2.29484 2.87771 1.91977 3.25278C1.5447 3.62785 1.33398 4.13656 1.33398 4.66699V11.3337C1.33398 11.8641 1.5447 12.3728 1.91977 12.7479C2.29484 13.1229 2.80355 13.3337 3.33398 13.3337H12.6673C13.1978 13.3337 13.7065 13.1229 14.0815 12.7479C14.4566 12.3728 14.6673 11.8641 14.6673 11.3337V4.66699C14.6673 4.13656 14.4566 3.62785 14.0815 3.25278C13.7065 2.87771 13.1978 2.66699 12.6673 2.66699ZM3.33398 12.0003C3.15717 12.0003 2.9876 11.9301 2.86258 11.8051C2.73756 11.68 2.66732 11.5105 2.66732 11.3337V9.72032L4.86732 7.52699C4.99194 7.40484 5.15948 7.33642 5.33398 7.33642C5.50849 7.33642 5.67603 7.40484 5.80065 7.52699L10.274 12.0003H3.33398ZM13.334 11.3337C13.334 11.5105 13.2637 11.68 13.1387 11.8051C13.0137 11.9301 12.8441 12.0003 12.6673 12.0003H12.154L9.61399 9.44699L10.2007 8.86033C10.3253 8.73817 10.4928 8.66975 10.6673 8.66975C10.8418 8.66975 11.0094 8.73817 11.134 8.86033L13.334 11.0537V11.3337ZM13.334 9.17366L12.0807 7.92699C11.7007 7.56195 11.1942 7.35808 10.6673 7.35808C10.1404 7.35808 9.63395 7.56195 9.25398 7.92699L8.66732 8.51366L6.74732 6.59366C6.36736 6.22861 5.86089 6.02474 5.33398 6.02474C4.80708 6.02474 4.30061 6.22861 3.92065 6.59366L2.66732 7.84033V4.66699C2.66732 4.49018 2.73756 4.32061 2.86258 4.19559C2.9876 4.07056 3.15717 4.00033 3.33398 4.00033H12.6673C12.8441 4.00033 13.0137 4.07056 13.1387 4.19559C13.2637 4.32061 13.334 4.49018 13.334 4.66699V9.17366Z" fill="#6C9B31"/>
</g>
</svg>
