<svg width="16" height="17" viewBox="0 0 16 17" fill="none" xmlns="http://www.w3.org/2000/svg">
<g id="u:bag">
<path id="Vector" d="M12.6666 4.5H10.6666V3.83333C10.6666 3.47971 10.5261 3.14057 10.2761 2.89052C10.026 2.64048 9.68687 2.5 9.33325 2.5H6.66659C6.31296 2.5 5.97382 2.64048 5.72378 2.89052C5.47373 3.14057 5.33325 3.47971 5.33325 3.83333V4.5H3.33325C2.80282 4.5 2.29411 4.71071 1.91904 5.08579C1.54397 5.46086 1.33325 5.96957 1.33325 6.5V12.5C1.33325 13.0304 1.54397 13.5391 1.91904 13.9142C2.29411 14.2893 2.80282 14.5 3.33325 14.5H12.6666C13.197 14.5 13.7057 14.2893 14.0808 13.9142C14.4559 13.5391 14.6666 13.0304 14.6666 12.5V6.5C14.6666 5.96957 14.4559 5.46086 14.0808 5.08579C13.7057 4.71071 13.197 4.5 12.6666 4.5ZM6.66659 3.83333H9.33325V4.5H6.66659V3.83333ZM13.3333 12.5C13.3333 12.6768 13.263 12.8464 13.138 12.9714C13.013 13.0964 12.8434 13.1667 12.6666 13.1667H3.33325C3.15644 13.1667 2.98687 13.0964 2.86185 12.9714C2.73682 12.8464 2.66659 12.6768 2.66659 12.5V8.76L5.78659 9.83333C5.85737 9.84294 5.92913 9.84294 5.99992 9.83333H9.99992C10.0722 9.832 10.144 9.82078 10.2133 9.8L13.3333 8.76V12.5ZM13.3333 7.35333L9.89325 8.5H6.10659L2.66659 7.35333V6.5C2.66659 6.32319 2.73682 6.15362 2.86185 6.0286C2.98687 5.90357 3.15644 5.83333 3.33325 5.83333H12.6666C12.8434 5.83333 13.013 5.90357 13.138 6.0286C13.263 6.15362 13.3333 6.32319 13.3333 6.5V7.35333Z" fill="#6C9B31"/>
</g>
</svg>
