<svg width="16" height="16" viewBox="0 0 16 16" fill="none" xmlns="http://www.w3.org/2000/svg">
<g id="u:book">
<path id="Vector" d="M10.0001 3.99967H6.00008C5.82327 3.99967 5.6537 4.06991 5.52868 4.19494C5.40365 4.31996 5.33341 4.48953 5.33341 4.66634V7.33301C5.33341 7.50982 5.40365 7.67939 5.52868 7.80441C5.6537 7.92944 5.82327 7.99967 6.00008 7.99967H10.0001C10.1769 7.99967 10.3465 7.92944 10.4715 7.80441C10.5965 7.67939 10.6667 7.50982 10.6667 7.33301V4.66634C10.6667 4.48953 10.5965 4.31996 10.4715 4.19494C10.3465 4.06991 10.1769 3.99967 10.0001 3.99967ZM9.33341 6.66634H6.66675V5.33301H9.33341V6.66634ZM11.3334 1.33301H3.33341C3.1566 1.33301 2.98703 1.40325 2.86201 1.52827C2.73699 1.65329 2.66675 1.82286 2.66675 1.99967V13.9997C2.66675 14.1765 2.73699 14.3461 2.86201 14.4711C2.98703 14.5961 3.1566 14.6663 3.33341 14.6663H11.3334C11.8638 14.6663 12.3726 14.4556 12.7476 14.0806C13.1227 13.7055 13.3334 13.1968 13.3334 12.6663V3.33301C13.3334 2.80257 13.1227 2.29387 12.7476 1.91879C12.3726 1.54372 11.8638 1.33301 11.3334 1.33301ZM12.0001 12.6663C12.0001 12.8432 11.9298 13.0127 11.8048 13.1377C11.6798 13.2628 11.5102 13.333 11.3334 13.333H4.00008V2.66634H11.3334C11.5102 2.66634 11.6798 2.73658 11.8048 2.8616C11.9298 2.98663 12.0001 3.1562 12.0001 3.33301V12.6663Z" fill="#6C9B31"/>
</g>
</svg>
