<svg width="16" height="16" viewBox="0 0 16 16" fill="none" xmlns="http://www.w3.org/2000/svg">
<g id="u:money-withdrawal">
<path id="Vector" d="M14.6667 1.33301H1.33341C1.1566 1.33301 0.987034 1.40325 0.86201 1.52827C0.736986 1.65329 0.666748 1.82286 0.666748 1.99967V7.33301C0.666748 7.50982 0.736986 7.67939 0.86201 7.80441C0.987034 7.92944 1.1566 7.99967 1.33341 7.99967H3.33341V13.9997C3.33341 14.1765 3.40365 14.3461 3.52868 14.4711C3.6537 14.5961 3.82327 14.6663 4.00008 14.6663H12.0001C12.1769 14.6663 12.3465 14.5961 12.4715 14.4711C12.5965 14.3461 12.6667 14.1765 12.6667 13.9997V7.99967H14.6667C14.8436 7.99967 15.0131 7.92944 15.1382 7.80441C15.2632 7.67939 15.3334 7.50982 15.3334 7.33301V1.99967C15.3334 1.82286 15.2632 1.65329 15.1382 1.52827C15.0131 1.40325 14.8436 1.33301 14.6667 1.33301ZM4.66675 13.333V11.9997C5.02037 11.9997 5.35951 12.1402 5.60956 12.3902C5.8596 12.6402 6.00008 12.9794 6.00008 13.333H4.66675ZM11.3334 13.333H10.0001C10.0001 12.9794 10.1406 12.6402 10.3906 12.3902C10.6407 12.1402 10.9798 11.9997 11.3334 11.9997V13.333ZM11.3334 10.6663C10.6262 10.6663 9.94789 10.9473 9.4478 11.4474C8.9477 11.9475 8.66675 12.6258 8.66675 13.333H7.33341C7.33341 12.6258 7.05246 11.9475 6.55237 11.4474C6.05227 10.9473 5.37399 10.6663 4.66675 10.6663V5.33301H11.3334V10.6663ZM14.0001 6.66634H12.6667V4.66634C12.6667 4.48953 12.5965 4.31996 12.4715 4.19494C12.3465 4.06991 12.1769 3.99967 12.0001 3.99967H4.00008C3.82327 3.99967 3.6537 4.06991 3.52868 4.19494C3.40365 4.31996 3.33341 4.48953 3.33341 4.66634V6.66634H2.00008V2.66634H14.0001V6.66634ZM8.00008 9.99967C8.39564 9.99967 8.78232 9.88238 9.11122 9.66261C9.44012 9.44285 9.69646 9.13049 9.84784 8.76504C9.99922 8.39959 10.0388 7.99746 9.96165 7.60949C9.88448 7.22153 9.694 6.86517 9.41429 6.58546C9.13459 6.30576 8.77822 6.11527 8.39026 6.0381C8.0023 5.96093 7.60017 6.00054 7.23471 6.15192C6.86926 6.30329 6.5569 6.55964 6.33714 6.88853C6.11738 7.21743 6.00008 7.60411 6.00008 7.99967C6.00008 8.53011 6.21079 9.03882 6.58587 9.41389C6.96094 9.78896 7.46965 9.99967 8.00008 9.99967ZM8.00008 7.33301C8.13194 7.33301 8.26083 7.37211 8.37046 7.44536C8.48009 7.51862 8.56554 7.62273 8.616 7.74455C8.66646 7.86637 8.67966 8.00041 8.65394 8.12973C8.62821 8.25906 8.56472 8.37784 8.47149 8.47108C8.37825 8.56431 8.25946 8.62781 8.13014 8.65353C8.00082 8.67926 7.86678 8.66605 7.74496 8.61559C7.62314 8.56514 7.51902 8.47969 7.44577 8.37006C7.37251 8.26042 7.33341 8.13153 7.33341 7.99967C7.33341 7.82286 7.40365 7.65329 7.52868 7.52827C7.6537 7.40325 7.82327 7.33301 8.00008 7.33301Z" fill="#6C9B31"/>
</g>
</svg>
