<svg width="16" height="16" viewBox="0 0 16 16" fill="none" xmlns="http://www.w3.org/2000/svg">
<g id="u:money-stack" clip-path="url(#clip0_840_2820)">
<path id="Vector" d="M14.6667 11.3337H1.33341C1.1566 11.3337 0.987034 11.4039 0.86201 11.5289C0.736986 11.6539 0.666748 11.8235 0.666748 12.0003C0.666748 12.1771 0.736986 12.3467 0.86201 12.4717C0.987034 12.5968 1.1566 12.667 1.33341 12.667H14.6667C14.8436 12.667 15.0131 12.5968 15.1382 12.4717C15.2632 12.3467 15.3334 12.1771 15.3334 12.0003C15.3334 11.8235 15.2632 11.6539 15.1382 11.5289C15.0131 11.4039 14.8436 11.3337 14.6667 11.3337ZM14.6667 14.0003H1.33341C1.1566 14.0003 0.987034 14.0706 0.86201 14.1956C0.736986 14.3206 0.666748 14.4902 0.666748 14.667C0.666748 14.8438 0.736986 15.0134 0.86201 15.1384C0.987034 15.2634 1.1566 15.3337 1.33341 15.3337H14.6667C14.8436 15.3337 15.0131 15.2634 15.1382 15.1384C15.2632 15.0134 15.3334 14.8438 15.3334 14.667C15.3334 14.4902 15.2632 14.3206 15.1382 14.1956C15.0131 14.0706 14.8436 14.0003 14.6667 14.0003ZM4.00008 4.66699C3.86823 4.66699 3.73933 4.70609 3.6297 4.77935C3.52007 4.8526 3.43462 4.95672 3.38416 5.07854C3.3337 5.20035 3.3205 5.3344 3.34622 5.46372C3.37195 5.59304 3.43544 5.71183 3.52868 5.80506C3.62191 5.8983 3.7407 5.96179 3.87002 5.98752C3.99934 6.01324 4.13339 6.00004 4.2552 5.94958C4.37702 5.89912 4.48114 5.81367 4.55439 5.70404C4.62765 5.59441 4.66675 5.46551 4.66675 5.33366C4.66675 5.15685 4.59651 4.98728 4.47149 4.86225C4.34646 4.73723 4.17689 4.66699 4.00008 4.66699ZM13.3334 0.666992H2.66675C2.13631 0.666992 1.62761 0.877706 1.25253 1.25278C0.877462 1.62785 0.666748 2.13656 0.666748 2.66699V8.00033C0.666748 8.53076 0.877462 9.03947 1.25253 9.41454C1.62761 9.78961 2.13631 10.0003 2.66675 10.0003H13.3334C13.8638 10.0003 14.3726 9.78961 14.7476 9.41454C15.1227 9.03947 15.3334 8.53076 15.3334 8.00033V2.66699C15.3334 2.13656 15.1227 1.62785 14.7476 1.25278C14.3726 0.877706 13.8638 0.666992 13.3334 0.666992ZM14.0001 8.00033C14.0001 8.17714 13.9298 8.34671 13.8048 8.47173C13.6798 8.59675 13.5102 8.66699 13.3334 8.66699H2.66675C2.48994 8.66699 2.32037 8.59675 2.19534 8.47173C2.07032 8.34671 2.00008 8.17714 2.00008 8.00033V2.66699C2.00008 2.49018 2.07032 2.32061 2.19534 2.19559C2.32037 2.07056 2.48994 2.00033 2.66675 2.00033H13.3334C13.5102 2.00033 13.6798 2.07056 13.8048 2.19559C13.9298 2.32061 14.0001 2.49018 14.0001 2.66699V8.00033ZM8.00008 3.33366C7.60452 3.33366 7.21784 3.45096 6.88894 3.67072C6.56004 3.89048 6.3037 4.20284 6.15232 4.56829C6.00095 4.93374 5.96134 5.33588 6.03851 5.72384C6.11568 6.1118 6.30616 6.46817 6.58587 6.74787C6.86557 7.02758 7.22194 7.21806 7.6099 7.29523C7.99786 7.3724 8.4 7.33279 8.76545 7.18142C9.1309 7.03004 9.44326 6.7737 9.66302 6.4448C9.88278 6.1159 10.0001 5.72922 10.0001 5.33366C10.0001 4.80323 9.78937 4.29452 9.41429 3.91945C9.03922 3.54437 8.53051 3.33366 8.00008 3.33366ZM8.00008 6.00033C7.86823 6.00033 7.73933 5.96123 7.6297 5.88797C7.52007 5.81472 7.43462 5.7106 7.38416 5.58878C7.3337 5.46696 7.3205 5.33292 7.34622 5.2036C7.37195 5.07428 7.43544 4.95549 7.52868 4.86225C7.62191 4.76902 7.7407 4.70553 7.87002 4.6798C7.99934 4.65408 8.13339 4.66728 8.2552 4.71774C8.37702 4.7682 8.48114 4.85365 8.55439 4.96328C8.62765 5.07291 8.66675 5.2018 8.66675 5.33366C8.66675 5.51047 8.59651 5.68004 8.47149 5.80506C8.34646 5.93009 8.17689 6.00033 8.00008 6.00033ZM12.0001 4.66699C11.8682 4.66699 11.7393 4.70609 11.6297 4.77935C11.5201 4.8526 11.4346 4.95672 11.3842 5.07854C11.3337 5.20035 11.3205 5.3344 11.3462 5.46372C11.3719 5.59304 11.4354 5.71183 11.5287 5.80506C11.6219 5.8983 11.7407 5.96179 11.87 5.98752C11.9993 6.01324 12.1334 6.00004 12.2552 5.94958C12.377 5.89912 12.4811 5.81367 12.5544 5.70404C12.6276 5.59441 12.6667 5.46551 12.6667 5.33366C12.6667 5.15685 12.5965 4.98728 12.4715 4.86225C12.3465 4.73723 12.1769 4.66699 12.0001 4.66699Z" fill="#6C9B31"/>
</g>
<defs>
<clipPath id="clip0_840_2820">
<rect width="16" height="16" fill="white"/>
</clipPath>
</defs>
</svg>
