<svg width="16" height="16" viewBox="0 0 16 16" fill="none" xmlns="http://www.w3.org/2000/svg">
<g id="u:newspaper">
<path id="Vector" d="M11.3333 7.33333H10.6666C10.4898 7.33333 10.3202 7.40357 10.1952 7.5286C10.0702 7.65362 9.99992 7.82319 9.99992 8C9.99992 8.17681 10.0702 8.34638 10.1952 8.4714C10.3202 8.59643 10.4898 8.66667 10.6666 8.66667H11.3333C11.5101 8.66667 11.6796 8.59643 11.8047 8.4714C11.9297 8.34638 11.9999 8.17681 11.9999 8C11.9999 7.82319 11.9297 7.65362 11.8047 7.5286C11.6796 7.40357 11.5101 7.33333 11.3333 7.33333ZM11.3333 10H10.6666C10.4898 10 10.3202 10.0702 10.1952 10.1953C10.0702 10.3203 9.99992 10.4899 9.99992 10.6667C9.99992 10.8435 10.0702 11.013 10.1952 11.1381C10.3202 11.2631 10.4898 11.3333 10.6666 11.3333H11.3333C11.5101 11.3333 11.6796 11.2631 11.8047 11.1381C11.9297 11.013 11.9999 10.8435 11.9999 10.6667C11.9999 10.4899 11.9297 10.3203 11.8047 10.1953C11.6796 10.0702 11.5101 10 11.3333 10ZM7.33325 6H11.3333C11.5101 6 11.6796 5.92976 11.8047 5.80474C11.9297 5.67971 11.9999 5.51014 11.9999 5.33333C11.9999 5.15652 11.9297 4.98695 11.8047 4.86193C11.6796 4.7369 11.5101 4.66667 11.3333 4.66667H7.33325C7.15644 4.66667 6.98687 4.7369 6.86185 4.86193C6.73682 4.98695 6.66659 5.15652 6.66659 5.33333C6.66659 5.51014 6.73682 5.67971 6.86185 5.80474C6.98687 5.92976 7.15644 6 7.33325 6ZM13.9999 2H4.66659C4.48977 2 4.32021 2.07024 4.19518 2.19526C4.07016 2.32029 3.99992 2.48986 3.99992 2.66667V4.66667H1.99992C1.82311 4.66667 1.65354 4.7369 1.52851 4.86193C1.40349 4.98695 1.33325 5.15652 1.33325 5.33333V12C1.33325 12.5304 1.54397 13.0391 1.91904 13.4142C2.29411 13.7893 2.80282 14 3.33325 14H11.9999C12.7072 14 13.3854 13.719 13.8855 13.219C14.3856 12.7189 14.6666 12.0406 14.6666 11.3333V2.66667C14.6666 2.48986 14.5963 2.32029 14.4713 2.19526C14.3463 2.07024 14.1767 2 13.9999 2ZM3.99992 12C3.99992 12.1768 3.92968 12.3464 3.80466 12.4714C3.67963 12.5964 3.51006 12.6667 3.33325 12.6667C3.15644 12.6667 2.98687 12.5964 2.86185 12.4714C2.73682 12.3464 2.66659 12.1768 2.66659 12V6H3.99992V12ZM13.3333 11.3333C13.3333 11.687 13.1928 12.0261 12.9427 12.2761C12.6927 12.5262 12.3535 12.6667 11.9999 12.6667H5.21325C5.29087 12.4529 5.33145 12.2274 5.33325 12V3.33333H13.3333V11.3333ZM7.33325 8.66667H7.99992C8.17673 8.66667 8.3463 8.59643 8.47132 8.4714C8.59635 8.34638 8.66659 8.17681 8.66659 8C8.66659 7.82319 8.59635 7.65362 8.47132 7.5286C8.3463 7.40357 8.17673 7.33333 7.99992 7.33333H7.33325C7.15644 7.33333 6.98687 7.40357 6.86185 7.5286C6.73682 7.65362 6.66659 7.82319 6.66659 8C6.66659 8.17681 6.73682 8.34638 6.86185 8.4714C6.98687 8.59643 7.15644 8.66667 7.33325 8.66667ZM7.33325 11.3333H7.99992C8.17673 11.3333 8.3463 11.2631 8.47132 11.1381C8.59635 11.013 8.66659 10.8435 8.66659 10.6667C8.66659 10.4899 8.59635 10.3203 8.47132 10.1953C8.3463 10.0702 8.17673 10 7.99992 10H7.33325C7.15644 10 6.98687 10.0702 6.86185 10.1953C6.73682 10.3203 6.66659 10.4899 6.66659 10.6667C6.66659 10.8435 6.73682 11.013 6.86185 11.1381C6.98687 11.2631 7.15644 11.3333 7.33325 11.3333Z" fill="#6C9B31"/>
</g>
</svg>
