<svg width="16" height="16" viewBox="0 0 16 16" fill="none" xmlns="http://www.w3.org/2000/svg">
<g id="u:edit-alt">
<path id="Vector" d="M3.3335 11.9996H6.16016C6.2479 12.0001 6.33488 11.9833 6.4161 11.9501C6.49733 11.917 6.5712 11.8681 6.6335 11.8063L11.2468 7.1863L13.1402 5.33297C13.2026 5.27099 13.2522 5.19726 13.2861 5.11602C13.3199 5.03478 13.3374 4.94764 13.3374 4.85963C13.3374 4.77163 13.3199 4.68449 13.2861 4.60325C13.2522 4.52201 13.2026 4.44828 13.1402 4.3863L10.3135 1.5263C10.2515 1.46381 10.1778 1.41422 10.0965 1.38037C10.0153 1.34653 9.92817 1.3291 9.84016 1.3291C9.75216 1.3291 9.66502 1.34653 9.58378 1.38037C9.50254 1.41422 9.42881 1.46381 9.36683 1.5263L7.48683 3.41297L2.86016 8.03297C2.79838 8.09526 2.74949 8.16914 2.71632 8.25036C2.68314 8.33159 2.66632 8.41856 2.66683 8.5063V11.333C2.66683 11.5098 2.73707 11.6793 2.86209 11.8044C2.98712 11.9294 3.15669 11.9996 3.3335 11.9996ZM9.84016 2.93963L11.7268 4.8263L10.7802 5.77297L8.8935 3.8863L9.84016 2.93963ZM4.00016 8.77963L7.9535 4.8263L9.84016 6.71297L5.88683 10.6663H4.00016V8.77963ZM14.0002 13.333H2.00016C1.82335 13.333 1.65378 13.4032 1.52876 13.5282C1.40373 13.6533 1.3335 13.8228 1.3335 13.9996C1.3335 14.1764 1.40373 14.346 1.52876 14.471C1.65378 14.5961 1.82335 14.6663 2.00016 14.6663H14.0002C14.177 14.6663 14.3465 14.5961 14.4716 14.471C14.5966 14.346 14.6668 14.1764 14.6668 13.9996C14.6668 13.8228 14.5966 13.6533 14.4716 13.5282C14.3465 13.4032 14.177 13.333 14.0002 13.333Z" fill="#D0A25C"/>
</g>
</svg>
