<svg width="16" height="16" viewBox="0 0 16 16" fill="none" xmlns="http://www.w3.org/2000/svg">
<g id="tabler:brand-facebook-filled" clip-path="url(#clip0_810_2088)">
<g id="Group">
<path id="Vector" d="M10 6.49967H11.9998C12.0235 6.49968 12.047 6.50476 12.0686 6.51456L12.2751 6.05921L12.0686 6.51456C12.0902 6.52436 12.1095 6.53866 12.1251 6.5565C12.1407 6.57435 12.1524 6.59532 12.1593 6.61803C12.1654 6.63832 12.1676 6.65958 12.1658 6.68066L12.1581 6.72364L11.4957 9.37314C11.4875 9.40606 11.4693 9.43567 11.4438 9.45801L11.7729 9.83446L11.4438 9.45801C11.4203 9.47851 11.3917 9.49199 11.361 9.497L11.3179 9.49967H10H9.5V9.99967V13.9996C9.5 13.9996 9.5 13.9997 9.5 13.9997C9.49998 14.0405 9.48499 14.0798 9.45788 14.1103L9.83152 14.4426L9.45788 14.1103C9.43288 14.1384 9.39918 14.1572 9.36232 14.1637L9.31839 14.1663H6.66673C6.66671 14.1663 6.66669 14.1663 6.66667 14.1663C6.62587 14.1663 6.58649 14.1513 6.556 14.1242C6.52789 14.0992 6.50914 14.0655 6.50263 14.0287L6.5 13.9847V9.99967V9.49967H6H4.66673C4.66671 9.49967 4.66669 9.49967 4.66667 9.49967C4.62587 9.49965 4.58649 9.48467 4.556 9.45755L4.22598 9.82869L4.556 9.45755C4.52789 9.43256 4.50914 9.39886 4.50263 9.362L4.5 9.31806V6.66641C4.5 6.66638 4.5 6.66636 4.5 6.66634C4.50002 6.62554 4.51501 6.58617 4.54212 6.55568C4.56711 6.52757 4.60081 6.50881 4.63767 6.5023L4.68161 6.49967H6H6.5V5.99967V5.33301V5.33299C6.49997 4.42743 6.85091 3.55711 7.4791 2.90488C8.10619 2.25379 8.96082 1.87063 9.86398 1.8355L10.0044 1.83301H11.9999C12 1.83301 12 1.83301 12 1.83301C12.0408 1.83303 12.0802 1.84801 12.1107 1.87513C12.1388 1.90012 12.1575 1.93382 12.164 1.97068L12.1667 2.01461V4.66628C12.1667 4.6663 12.1667 4.66632 12.1667 4.66634C12.1666 4.70714 12.1517 4.74651 12.1245 4.777C12.0996 4.80511 12.0658 4.82387 12.029 4.83038L11.9851 4.83301H10H9.5V5.33301V5.99967V6.49967H10Z" fill="#6C9B31" stroke="white"/>
</g>
</g>
<defs>
<clipPath id="clip0_810_2088">
<rect width="16" height="16" fill="white"/>
</clipPath>
</defs>
</svg>
