<svg width="20" height="20" viewBox="0 0 20 20" fill="none" xmlns="http://www.w3.org/2000/svg">
<g id="u:vector-square">
<path id="Vector" d="M16.1666 13.4837V13.839L16.5021 13.9559C16.8219 14.0673 17.1081 14.2581 17.334 14.5104C17.5599 14.7626 17.7181 15.0681 17.7936 15.3982C17.8692 15.7283 17.8597 16.0722 17.7661 16.3976C17.6725 16.723 17.4977 17.0193 17.2583 17.2588C17.0188 17.4982 16.7225 17.6729 16.3971 17.7666C16.0717 17.8602 15.7278 17.8697 15.3977 17.7941C15.0676 17.7185 14.7621 17.5604 14.5099 17.3345C14.2576 17.1086 14.0668 16.8223 13.9554 16.5026L13.8385 16.1671H13.4833H6.51658H6.16131L6.04442 16.5026C5.93301 16.8223 5.74223 17.1086 5.48996 17.3345C5.2377 17.5604 4.9322 17.7185 4.60212 17.7941C4.27203 17.8697 3.92816 17.8602 3.60274 17.7666C3.27732 17.6729 2.98099 17.4982 2.74155 17.2588C2.5021 17.0193 2.32737 16.723 2.23374 16.3976C2.14011 16.0722 2.13063 15.7283 2.20621 15.3982C2.28178 15.0681 2.43993 14.7626 2.66583 14.5104C2.89173 14.2581 3.17798 14.0673 3.49775 13.9559L3.83325 13.839V13.4837V6.51707V6.16179L3.49775 6.04491C3.17798 5.9335 2.89173 5.74272 2.66583 5.49045C2.43993 5.23819 2.28178 4.93269 2.20621 4.60261C2.13063 4.27252 2.14011 3.92865 2.23374 3.60323C2.32737 3.2778 2.5021 2.98148 2.74155 2.74204C2.98099 2.50259 3.27732 2.32786 3.60274 2.23423C3.92816 2.14059 4.27203 2.13112 4.60212 2.20669C4.93221 2.28227 5.2377 2.44042 5.48996 2.66632C5.74223 2.89221 5.93301 3.17847 6.04442 3.49824L6.16131 3.83374H6.51658H13.4833H13.8385L13.9554 3.49824C14.0668 3.17847 14.2576 2.89221 14.5099 2.66632C14.7621 2.44042 15.0676 2.28227 15.3977 2.20669C15.7278 2.13112 16.0717 2.14059 16.3971 2.23423C16.7225 2.32786 17.0188 2.50259 17.2583 2.74204C17.4977 2.98148 17.6725 3.2778 17.7661 3.60323C17.8597 3.92865 17.8692 4.27252 17.7936 4.60261C17.7181 4.93269 17.5599 5.23819 17.334 5.49045C17.1081 5.74272 16.8219 5.9335 16.5021 6.04491L16.1666 6.16179V6.51707V13.4837ZM14.8904 3.22426L15.244 3.57781L14.8904 3.22426C14.6404 3.47431 14.4999 3.81345 14.4999 4.16707C14.4999 4.43078 14.5781 4.68856 14.7246 4.90783L15.1404 4.63005L14.7246 4.90783C14.8711 5.1271 15.0794 5.29799 15.323 5.39891C15.5666 5.49983 15.8347 5.52623 16.0934 5.47478C16.352 5.42334 16.5896 5.29635 16.7761 5.10988C16.9625 4.92341 17.0895 4.68583 17.141 4.42719C17.1924 4.16855 17.166 3.90046 17.0651 3.65683C16.9642 3.41319 16.7933 3.20495 16.574 3.05845C16.3547 2.91194 16.097 2.83374 15.8332 2.83374C15.4796 2.83374 15.1405 2.97421 14.8904 3.22426ZM2.93474 16.344L3.38656 16.1568L2.93474 16.344C3.03566 16.5876 3.20655 16.7959 3.42582 16.9424L3.69885 16.5338L3.42582 16.9424C3.64509 17.0889 3.90287 17.1671 4.16658 17.1671C4.5202 17.1671 4.85934 17.0266 5.10939 16.7765L4.75584 16.423L5.10939 16.7765C5.35944 16.5265 5.49992 16.1874 5.49992 15.8337C5.49992 15.57 5.42172 15.3122 5.27521 15.093C5.1287 14.8737 4.92046 14.7028 4.67683 14.6019C4.43319 14.501 4.1651 14.4746 3.90646 14.526C3.64782 14.5775 3.41024 14.7045 3.22377 14.8909C3.0373 15.0774 2.91032 15.315 2.85887 15.5736C2.80742 15.8323 2.83383 16.1003 2.93474 16.344ZM3.22377 3.22426L3.57733 3.57781L3.22377 3.22426C2.97372 3.47431 2.83325 3.81345 2.83325 4.16707C2.83325 4.43078 2.91145 4.68857 3.05796 4.90783C3.20446 5.1271 3.4127 5.29799 3.65634 5.39891C3.89997 5.49983 4.16806 5.52623 4.4267 5.47478C4.68534 5.42334 4.92292 5.29635 5.10939 5.10988C5.29586 4.92341 5.42285 4.68583 5.4743 4.42719C5.52574 4.16855 5.49934 3.90046 5.39842 3.65683C5.2975 3.41319 5.12661 3.20495 4.90734 3.05844C4.68808 2.91194 4.43029 2.83374 4.16658 2.83374C3.81296 2.83374 3.47382 2.97421 3.22377 3.22426ZM13.4833 15.5004H13.836L13.9543 15.1681C14.0538 14.8885 14.2144 14.6346 14.4242 14.4247C14.6341 14.2148 14.888 14.0543 15.1676 13.9548L15.4999 13.8365V13.4837V6.51707V6.16434L15.1676 6.04603C14.888 5.94649 14.6341 5.78596 14.4242 5.5761C14.2144 5.36624 14.0538 5.1123 13.9543 4.8327L13.836 4.5004H13.4833H6.51658H6.16385L6.04555 4.8327C5.946 5.1123 5.78548 5.36624 5.57561 5.5761C5.36575 5.78596 5.11181 5.94649 4.83221 6.04603L4.49992 6.16434V6.51707V13.4837V13.8365L4.83221 13.9548C5.11181 14.0543 5.36575 14.2148 5.57561 14.4247C5.78548 14.6346 5.946 14.8885 6.04555 15.1681L6.16385 15.5004H6.51658H13.4833ZM15.0925 16.9424L15.3703 16.5266L15.0925 16.9424C15.3118 17.0889 15.5695 17.1671 15.8332 17.1671C16.1869 17.1671 16.526 17.0266 16.7761 16.7765L16.4225 16.423L16.7761 16.7765C17.0261 16.5265 17.1666 16.1874 17.1666 15.8337C17.1666 15.57 17.0884 15.3122 16.9419 15.093L16.5261 15.3708L16.9419 15.093C16.7954 14.8737 16.5871 14.7028 16.3435 14.6019C16.0999 14.501 15.8318 14.4746 15.5731 14.526C15.3145 14.5775 15.0769 14.7045 14.8904 14.8909C14.704 15.0774 14.577 15.315 14.5255 15.5736C14.4741 15.8323 14.5005 16.1003 14.6014 16.344C14.7023 16.5876 14.8732 16.7959 15.0925 16.9424Z" fill="black" stroke="#141F14"/>
</g>
</svg>
