<svg width="16" height="16" viewBox="0 0 16 16" fill="none" xmlns="http://www.w3.org/2000/svg">
<g id="u:university">
<path id="Vector" d="M14 6.66699C14.0875 6.66701 14.1742 6.64979 14.2551 6.61629C14.336 6.5828 14.4095 6.53369 14.4714 6.47178C14.5333 6.40987 14.5825 6.33637 14.6159 6.25547C14.6494 6.17458 14.6667 6.08788 14.6666 6.00032V4.00032C14.6667 3.86044 14.6227 3.72409 14.5409 3.61062C14.4591 3.49715 14.3437 3.41232 14.2109 3.36816L8.21092 1.36816C8.07399 1.32259 7.92597 1.32259 7.78904 1.36816L1.78904 3.36816C1.65631 3.41232 1.54085 3.49715 1.45905 3.61062C1.37725 3.72409 1.33326 3.86044 1.33331 4.00032V6.00032C1.33329 6.08788 1.35052 6.17458 1.38401 6.25547C1.41751 6.33637 1.46661 6.40987 1.52852 6.47178C1.59043 6.53369 1.66394 6.5828 1.74483 6.61629C1.82572 6.64979 1.91243 6.66701 1.99998 6.66699H2.66665V11.4565C2.2778 11.5935 1.94089 11.8474 1.70216 12.1835C1.46343 12.5196 1.33458 12.9214 1.33331 13.3337V14.667C1.33329 14.7545 1.35052 14.8412 1.38401 14.9221C1.41751 15.003 1.46661 15.0765 1.52852 15.1384C1.59043 15.2004 1.66394 15.2495 1.74483 15.283C1.82572 15.3165 1.91243 15.3337 1.99998 15.3337H14C14.0875 15.3337 14.1742 15.3165 14.2551 15.283C14.336 15.2495 14.4095 15.2004 14.4714 15.1384C14.5333 15.0765 14.5825 15.003 14.6159 14.9221C14.6494 14.8412 14.6667 14.7545 14.6666 14.667V13.3337C14.6654 12.9214 14.5365 12.5196 14.2978 12.1835C14.0591 11.8474 13.7222 11.5935 13.3333 11.4565V6.66699H14ZM13.3333 14.0003H2.66665V13.3337C2.66682 13.1569 2.73712 12.9874 2.8621 12.8624C2.98709 12.7375 3.15656 12.6672 3.33331 12.667H12.6666C12.8434 12.6672 13.0129 12.7375 13.1379 12.8624C13.2628 12.9874 13.3331 13.1569 13.3333 13.3337V14.0003ZM3.99998 11.3337V6.66699H5.33331V11.3337H3.99998ZM6.66665 11.3337V6.66699H9.33331V11.3337H6.66665ZM10.6666 11.3337V6.66699H12V11.3337H10.6666ZM2.66665 5.33366V4.48079L7.99998 2.70279L13.3333 4.48079V5.33366H2.66665Z" fill="#6C9B31"/>
</g>
</svg>
