<svg width="20" height="20" viewBox="0 0 20 20" fill="none" xmlns="http://www.w3.org/2000/svg">
<g id="u:moneybag">
<path id="Vector" d="M10.0001 9.16699C9.50563 9.16699 9.02228 9.31362 8.61116 9.58832C8.20003 9.86302 7.8796 10.2535 7.69038 10.7103C7.50116 11.1671 7.45166 11.6698 7.54812 12.1547C7.64458 12.6397 7.88268 13.0851 8.23231 13.4348C8.58195 13.7844 9.0274 14.0225 9.51236 14.119C9.99731 14.2154 10.5 14.1659 10.9568 13.9767C11.4136 13.7875 11.8041 13.467 12.0788 13.0559C12.3535 12.6448 12.5001 12.1614 12.5001 11.667C12.5001 11.004 12.2367 10.3681 11.7678 9.89923C11.299 9.43038 10.6631 9.16699 10.0001 9.16699ZM10.0001 12.5003C9.83526 12.5003 9.67415 12.4515 9.53711 12.3599C9.40007 12.2683 9.29325 12.1382 9.23018 11.9859C9.16711 11.8336 9.15061 11.6661 9.18276 11.5044C9.21491 11.3428 9.29428 11.1943 9.41083 11.0777C9.52737 10.9612 9.67586 10.8818 9.83751 10.8497C9.99916 10.8175 10.1667 10.834 10.319 10.8971C10.4713 10.9602 10.6014 11.067 10.693 11.204C10.7845 11.3411 10.8334 11.5022 10.8334 11.667C10.8334 11.888 10.7456 12.1 10.5893 12.2562C10.4331 12.4125 10.2211 12.5003 10.0001 12.5003ZM15.8334 5.00033H13.3334V4.16699C13.3334 3.50395 13.07 2.86807 12.6012 2.39923C12.1323 1.93038 11.4965 1.66699 10.8334 1.66699H9.16675C8.50371 1.66699 7.86782 1.93038 7.39898 2.39923C6.93014 2.86807 6.66675 3.50395 6.66675 4.16699V5.00033H4.16675C3.50371 5.00033 2.86782 5.26372 2.39898 5.73256C1.93014 6.2014 1.66675 6.83728 1.66675 7.50033V15.8337C1.66675 16.4967 1.93014 17.1326 2.39898 17.6014C2.86782 18.0703 3.50371 18.3337 4.16675 18.3337H15.8334C16.4965 18.3337 17.1323 18.0703 17.6012 17.6014C18.07 17.1326 18.3334 16.4967 18.3334 15.8337V7.50033C18.3334 6.83728 18.07 6.2014 17.6012 5.73256C17.1323 5.26372 16.4965 5.00033 15.8334 5.00033ZM8.33342 4.16699C8.33342 3.94598 8.42121 3.73402 8.57749 3.57774C8.73377 3.42146 8.94573 3.33366 9.16675 3.33366H10.8334C11.0544 3.33366 11.2664 3.42146 11.4227 3.57774C11.579 3.73402 11.6667 3.94598 11.6667 4.16699V5.00033H8.33342V4.16699ZM3.33341 7.50033C3.33341 7.27931 3.42121 7.06735 3.57749 6.91107C3.73377 6.75479 3.94573 6.66699 4.16675 6.66699H5.00008C5.00008 7.10902 4.82449 7.53294 4.51193 7.8455C4.19937 8.15806 3.77544 8.33366 3.33341 8.33366V7.50033ZM4.16675 16.667C3.94573 16.667 3.73377 16.5792 3.57749 16.4229C3.42121 16.2666 3.33341 16.0547 3.33341 15.8337V15.0003C3.77544 15.0003 4.19937 15.1759 4.51193 15.4885C4.82449 15.801 5.00008 16.225 5.00008 16.667H4.16675ZM16.6667 15.8337C16.6667 16.0547 16.579 16.2666 16.4227 16.4229C16.2664 16.5792 16.0544 16.667 15.8334 16.667H15.0001C15.0001 16.225 15.1757 15.801 15.4882 15.4885C15.8008 15.1759 16.2247 15.0003 16.6667 15.0003V15.8337ZM16.6667 13.3337C15.7827 13.3337 14.9348 13.6848 14.3097 14.31C13.6846 14.9351 13.3334 15.7829 13.3334 16.667H6.66675C6.66675 15.7829 6.31556 14.9351 5.69044 14.31C5.06532 13.6848 4.21747 13.3337 3.33341 13.3337V10.0003C4.21747 10.0003 5.06532 9.64914 5.69044 9.02402C6.31556 8.39889 6.66675 7.55105 6.66675 6.66699H13.3334C13.3334 7.55105 13.6846 8.39889 14.3097 9.02402C14.9348 9.64914 15.7827 10.0003 16.6667 10.0003V13.3337ZM16.6667 8.33366C16.2247 8.33366 15.8008 8.15806 15.4882 7.8455C15.1757 7.53294 15.0001 7.10902 15.0001 6.66699H15.8334C16.0544 6.66699 16.2664 6.75479 16.4227 6.91107C16.579 7.06735 16.6667 7.27931 16.6667 7.50033V8.33366Z" fill="#141F14"/>
</g>
</svg>
