<svg width="16" height="16" viewBox="0 0 16 16" fill="none" xmlns="http://www.w3.org/2000/svg">
<g id="ant-design:instagram-filled">
<path id="Vector" d="M8.00056 5.91687C6.85369 5.91687 5.91775 6.85281 5.91775 7.99968C5.91775 9.14656 6.85369 10.0825 8.00056 10.0825C9.14744 10.0825 10.0834 9.14656 10.0834 7.99968C10.0834 6.85281 9.14744 5.91687 8.00056 5.91687ZM14.2474 7.99968C14.2474 7.13718 14.2552 6.2825 14.2068 5.42156C14.1584 4.42156 13.9302 3.53406 13.199 2.80281C12.4662 2.07 11.5802 1.84343 10.5802 1.795C9.71775 1.74656 8.86306 1.75437 8.00212 1.75437C7.13962 1.75437 6.28494 1.74656 5.424 1.795C4.424 1.84343 3.5365 2.07156 2.80525 2.80281C2.07244 3.53562 1.84587 4.42156 1.79744 5.42156C1.749 6.28406 1.75681 7.13875 1.75681 7.99968C1.75681 8.86062 1.749 9.71687 1.79744 10.5778C1.84587 11.5778 2.074 12.4653 2.80525 13.1966C3.53806 13.9294 4.424 14.1559 5.424 14.2044C6.2865 14.2528 7.14119 14.245 8.00212 14.245C8.86462 14.245 9.71931 14.2528 10.5802 14.2044C11.5802 14.1559 12.4677 13.9278 13.199 13.1966C13.9318 12.4637 14.1584 11.5778 14.2068 10.5778C14.2568 9.71687 14.2474 8.86218 14.2474 7.99968ZM8.00056 11.2044C6.22712 11.2044 4.79587 9.77312 4.79587 7.99968C4.79587 6.22625 6.22712 4.795 8.00056 4.795C9.774 4.795 11.2052 6.22625 11.2052 7.99968C11.2052 9.77312 9.774 11.2044 8.00056 11.2044ZM11.3365 5.41218C10.9224 5.41218 10.5881 5.07781 10.5881 4.66375C10.5881 4.24968 10.9224 3.91531 11.3365 3.91531C11.7506 3.91531 12.0849 4.24968 12.0849 4.66375C12.0851 4.76207 12.0658 4.85945 12.0282 4.95031C11.9906 5.04117 11.9355 5.12372 11.866 5.19325C11.7965 5.26277 11.7139 5.3179 11.6231 5.35546C11.5322 5.39303 11.4348 5.41231 11.3365 5.41218Z" fill="#6C9B31"/>
</g>
</svg>
