<svg width="16" height="17" viewBox="0 0 16 17" fill="none" xmlns="http://www.w3.org/2000/svg">
<g id="u:phone-alt">
<path id="Vector" d="M12.9601 9.16625C12.8134 9.16625 12.6601 9.11959 12.5134 9.08625C12.2164 9.0208 11.9245 8.93391 11.6401 8.82625C11.3308 8.71374 10.9908 8.71958 10.6856 8.84266C10.3804 8.96573 10.1315 9.19734 9.98673 9.49292L9.84007 9.79292C9.19074 9.43171 8.59406 8.98307 8.06673 8.45959C7.54325 7.93226 7.09462 7.33558 6.7334 6.68625L7.0134 6.49959C7.30898 6.35486 7.54059 6.10594 7.66366 5.80071C7.78674 5.49549 7.79258 5.15553 7.68007 4.84625C7.57422 4.5612 7.48736 4.26945 7.42007 3.97292C7.38673 3.82625 7.36007 3.67292 7.34007 3.51959C7.25911 3.05 7.01315 2.62475 6.64648 2.32041C6.27981 2.01608 5.81653 1.85266 5.34007 1.85959H3.34007C3.05275 1.85689 2.76823 1.91613 2.50587 2.03327C2.24351 2.15042 2.00947 2.32272 1.81969 2.53844C1.6299 2.75417 1.48882 3.00825 1.40606 3.2834C1.32329 3.55854 1.30079 3.84829 1.34007 4.13292C1.69523 6.92584 2.97075 9.52084 4.96517 11.508C6.95958 13.4952 9.55921 14.7613 12.3534 15.1063H12.6067C13.0983 15.107 13.573 14.9266 13.9401 14.5996C14.151 14.4109 14.3195 14.1797 14.4344 13.9211C14.5493 13.6626 14.608 13.3825 14.6067 13.0996V11.0996C14.5986 10.6365 14.4299 10.1906 14.1296 9.83803C13.8293 9.48544 13.4159 9.248 12.9601 9.16625ZM13.2934 13.1663C13.2933 13.2609 13.273 13.3545 13.2339 13.4407C13.1948 13.5269 13.1378 13.6038 13.0667 13.6663C12.9922 13.7306 12.9051 13.7786 12.811 13.8073C12.7169 13.836 12.6178 13.8447 12.5201 13.8329C10.0233 13.5128 7.70423 12.3706 5.92854 10.5864C4.15286 8.80232 3.02167 6.47781 2.7134 3.97959C2.70279 3.88193 2.71209 3.78314 2.74074 3.68918C2.76938 3.59522 2.81678 3.50804 2.88007 3.43292C2.94254 3.36181 3.01944 3.30481 3.10565 3.26573C3.19186 3.22665 3.28541 3.20637 3.38007 3.20625H5.38007C5.5351 3.2028 5.68648 3.25351 5.80816 3.34963C5.92984 3.44576 6.01421 3.5813 6.04673 3.73292C6.0734 3.91514 6.10673 4.09514 6.14673 4.27292C6.22375 4.62435 6.32624 4.96971 6.4534 5.30625L5.52007 5.73959C5.44027 5.7762 5.36848 5.82822 5.30884 5.89265C5.2492 5.95708 5.20287 6.03266 5.17251 6.11505C5.14216 6.19744 5.12838 6.28501 5.13197 6.37273C5.13555 6.46046 5.15643 6.54662 5.1934 6.62625C6.15287 8.68142 7.8049 10.3335 9.86007 11.2929C10.0224 11.3596 10.2044 11.3596 10.3667 11.2929C10.4499 11.2632 10.5263 11.2172 10.5915 11.1577C10.6567 11.0982 10.7095 11.0263 10.7467 10.9463L11.1601 10.0129C11.5047 10.1362 11.8565 10.2386 12.2134 10.3196C12.3912 10.3596 12.5712 10.3929 12.7534 10.4196C12.905 10.4521 13.0406 10.5365 13.1367 10.6582C13.2328 10.7798 13.2835 10.9312 13.2801 11.0863L13.2934 13.1663Z" fill="#6C9B31"/>
</g>
</svg>
