<svg width="16" height="16" viewBox="0 0 16 16" fill="none" xmlns="http://www.w3.org/2000/svg">
<g id="basil:telegram-solid">
<path id="Vector" fill-rule="evenodd" clip-rule="evenodd" d="M12.3221 13.1931V13.1918L12.3341 13.1631L14.3335 3.08313V3.05113C14.3335 2.79979 14.2401 2.58046 14.0388 2.44913C13.8621 2.33379 13.6588 2.32579 13.5161 2.33646C13.3833 2.34847 13.2523 2.37531 13.1255 2.41646C13.0714 2.4339 13.018 2.45347 12.9655 2.47513L12.9568 2.47846L1.81014 6.85113L1.80681 6.85246C1.77292 6.86403 1.73975 6.87761 1.70748 6.89313C1.6282 6.92874 1.55214 6.97112 1.48014 7.01979C1.33681 7.11846 1.06414 7.35046 1.11014 7.71846C1.14814 8.02379 1.35814 8.21713 1.50014 8.31779C1.58396 8.37653 1.67407 8.42572 1.76881 8.46446L1.79014 8.47379L1.79681 8.47579L1.80148 8.47779L3.75214 9.13446C3.74548 9.25646 3.75748 9.38113 3.79014 9.50446L4.76681 13.2105C4.82017 13.4125 4.93546 13.5927 5.09649 13.7258C5.25753 13.859 5.45622 13.9383 5.66466 13.9527C5.8731 13.9671 6.08083 13.9159 6.25865 13.8062C6.43648 13.6965 6.57549 13.5339 6.65614 13.3411L8.18148 11.7105L10.8008 13.7185L10.8381 13.7345C11.0761 13.8385 11.2981 13.8711 11.5015 13.8438C11.7048 13.8158 11.8661 13.7305 11.9875 13.6338C12.1278 13.52 12.2397 13.3751 12.3141 13.2105L12.3195 13.1991L12.3215 13.1951L12.3221 13.1931ZM4.75681 9.24979C4.74599 9.20867 4.74857 9.16517 4.76415 9.12561C4.77973 9.08605 4.80752 9.05249 4.84348 9.02979L11.4575 4.82979C11.4575 4.82979 11.8468 4.59313 11.8328 4.82979C11.8328 4.82979 11.9021 4.87113 11.6935 5.06513C11.4961 5.24979 6.97948 9.61046 6.52214 10.0518C6.49671 10.0765 6.4789 10.108 6.47081 10.1425L5.73348 12.9558L4.75681 9.24913V9.24979Z" fill="#6C9B31"/>
</g>
</svg>
