<svg width="565" height="220" viewBox="0 0 565 220" fill="none" xmlns="http://www.w3.org/2000/svg">
<path d="M1 219.5L17.7349 166.403C20.8466 156.53 33.9584 154.568 39.8247 163.097V163.097C42.1431 166.467 45.972 168.481 50.063 168.481H64.3094C67.2942 168.481 70.029 166.814 71.396 164.16V164.16C74.589 157.963 83.6382 158.561 85.988 165.124L89.8596 175.939C91.7045 181.093 96.5883 184.532 102.062 184.532H104.562C111.48 184.532 117.664 180.219 120.055 173.727L145.151 105.588C147.597 98.9452 153.926 94.532 161.004 94.532H161.965C167.258 94.532 172.169 91.7758 174.926 87.2578L177.685 82.7353C183.15 73.7805 196.525 75.0379 200.225 84.8543L201.51 88.2629C205.519 98.9022 220.892 97.8814 223.46 86.8052V86.8052C224.668 81.5959 229.309 77.9078 234.656 77.9078H236.299C241.872 77.9078 246.878 74.4983 248.918 69.3125L254.398 55.3863C257.353 47.8768 264.678 42.9397 272.748 42.9397V42.9397C280.164 42.9397 287 38.7124 290.253 32.048V32.048C293.506 25.3835 300.273 21.1562 307.689 21.1562H319.468C322.341 21.1562 325.11 20.0794 327.228 18.1381V18.1381C334.594 11.3867 346.471 16.6119 346.471 26.6037V50.1553C346.471 62.2198 356.251 72 368.316 72H384.191C386.485 72 388.697 71.1398 390.389 69.5892V69.5892C396.272 64.1962 405.76 68.37 405.76 76.3514V82.607C405.76 89.193 411.099 94.532 417.685 94.532H431.588C437.81 94.532 442.854 89.4881 442.854 83.266V83.266C442.854 77.044 447.898 72 454.12 72H455.4C462.33 72 467.947 66.3828 467.947 59.4535V56.027C467.947 51.5494 469.826 47.2774 473.127 44.2519L479.832 38.106C484.468 33.8571 490.528 31.5 496.816 31.5H511.201C517.138 31.5 521.951 26.6871 521.951 20.75V20.75C521.951 14.8129 526.764 10 532.701 10H564.5" stroke="#6C9B31"/>
<path opacity="0.2" d="M17.7349 166.403L1 219.5H564.5V10H532.701C526.764 10 521.951 14.8129 521.951 20.75C521.951 26.6871 517.138 31.5 511.201 31.5H496.816C490.528 31.5 484.468 33.8571 479.832 38.106L473.127 44.2519C469.826 47.2774 467.947 51.5494 467.947 56.027V59.4535C467.947 66.3828 462.33 72 455.4 72H454.12C447.898 72 442.854 77.044 442.854 83.266C442.854 89.4881 437.81 94.532 431.588 94.532H417.685C411.099 94.532 405.76 89.193 405.76 82.607V76.3514C405.76 68.37 396.272 64.1962 390.389 69.5891C388.697 71.1398 386.485 72 384.191 72H368.316C356.251 72 346.471 62.2198 346.471 50.1553V26.6037C346.471 16.6119 334.594 11.3867 327.228 18.1381C325.11 20.0794 322.341 21.1562 319.468 21.1562H307.689C300.273 21.1562 293.506 25.3835 290.253 32.048C287 38.7124 280.164 42.9397 272.748 42.9397C264.678 42.9397 257.353 47.8768 254.398 55.3863L248.918 69.3125C246.878 74.4983 241.872 77.9078 236.299 77.9078H234.656C229.309 77.9078 224.668 81.5959 223.46 86.8052C220.892 97.8814 205.519 98.9022 201.51 88.2629L200.225 84.8543C196.525 75.0379 183.15 73.7805 177.685 82.7353L174.926 87.2578C172.169 91.7758 167.258 94.532 161.965 94.532H161.004C153.926 94.532 147.597 98.9452 145.151 105.588L120.055 173.727C117.664 180.219 111.48 184.532 104.562 184.532H102.062C96.5883 184.532 91.7045 181.093 89.8596 175.939L85.988 165.124C83.6382 158.561 74.589 157.963 71.396 164.16C70.029 166.814 67.2942 168.481 64.3094 168.481H50.063C45.972 168.481 42.1431 166.467 39.8247 163.097C33.9585 154.568 20.8466 156.53 17.7349 166.403Z" fill="url(#paint0_linear_810_1803)"/>
<defs>
<linearGradient id="paint0_linear_810_1803" x1="282.75" y1="0.5" x2="282.75" y2="219.5" gradientUnits="userSpaceOnUse">
<stop stop-color="#6C9B31"/>
<stop offset="1" stop-color="#6C9B31" stop-opacity="0"/>
</linearGradient>
</defs>
</svg>
